<?xml version="1.0" encoding="utf-8"?>
<!-- Generator: Adobe Illustrator 27.5.0, SVG Export Plug-In . SVG Version: 6.00 Build 0)  -->
<svg version="1.1" id="Capa_1" xmlns="http://www.w3.org/2000/svg" xmlns:xlink="http://www.w3.org/1999/xlink" x="0px" y="0px"
	 viewBox="0 0 425.195 354.024" style="enable-background:new 0 0 425.195 354.024;" xml:space="preserve">
<rect style="fill:#EF7C55;" width="425.195" height="354.024"/>
<g>
	<g>
		<g>
			<g>
				<path style="fill:#BCE2F1;" d="M77.586,294.59c-26.084,0-47.305-21.221-47.305-47.304c0-26.084,21.221-47.305,47.305-47.305
					c26.083,0,47.304,21.221,47.304,47.305C124.89,273.37,103.669,294.59,77.586,294.59z"/>
				<path style="fill:#8BD1ED;" d="M77.586,201.482c25.297,0,45.804,20.508,45.804,45.805c0,25.297-20.507,45.804-45.804,45.804
					c-25.299,0-45.805-20.507-45.805-45.804C31.781,221.99,52.287,201.482,77.586,201.482 M77.586,198.482
					c-26.911,0-48.805,21.894-48.805,48.805c0,26.91,21.894,48.804,48.805,48.804c26.91,0,48.804-21.894,48.804-48.804
					C126.39,220.376,104.496,198.482,77.586,198.482L77.586,198.482z"/>
			</g>
			<g>
				<g>
					<path style="fill:#A4B91A;" d="M55.297,234.993c-0.649,0.838-1.066,0.792-1.372,0.759c0.099-0.136,0.223-0.294,0.481-0.438
						c0.285-0.16,0.607-0.218,0.904-0.341C55.306,234.979,55.301,234.986,55.297,234.993 M68.698,273.234
						c0.071-1.623-0.884-2.075-2.584-2.735c-1.272-0.493-4.77-2.64-4.796-2.657c-1.69-1.215-2.535-3.238-4.252-4.425
						c-1.523-1.052-3.326-1.621-4.782-2.787c-0.226-0.182-0.521-0.432-0.741-0.62c-0.146,0.024-0.344,0.059-0.491,0.083
						c-0.021,0.07-0.021,0.07-0.103,1.508c-0.123,0-0.287,0-0.41,0c-0.169-0.809,0.214-1.593,0.109-2.399
						c-0.689,0.619-2.238,2.259-2.242,2.265c-2.604-1.434-2.604-1.434-2.762-5.357c-1.225-0.593-1.225-0.593-1.727-4.065
						c-0.898-0.216-1.439,0.564-2.181,0.781c-1.748-0.992-0.276-5.615,0.458-6.012c0.034-0.019,3.523-1.535,5.061,3.438
						c0.467-1.139-0.252-2.365,0.264-3.497c0.887-1.943,4.131-6.161,4.162-6.201c0.194-0.245,0.524-0.529,0.807-0.659
						c0.248-0.111,0.645-0.041,0.898-0.139c1.123-0.434,2.729-3.08,3.291-1.476c0.044,0.125,0.076,0.302,0.109,0.431
						c0.238,0.069,0.607,0.029,0.826-0.092c0.121-1.281-1.004-2.304-0.744-3.611c-0.267-0.08-0.624-0.177-0.896-0.235
						c0.254-0.34,0.254-0.34,4.226-0.78c0.045,0.113,0.104,0.265,0.149,0.378c-0.066,0.12-0.154,0.281-0.221,0.404
						c1.883,0.473,1.039-2.592,1.028-2.625c-0.289-0.845-1.142-1.357-1.335-2.259c-0.246-1.118,1.202-2.187,0.123-3.325
						c-0.752,0.151-1.324,0.771-2.119,0.811c-0.086-0.104-0.201-0.242-0.287-0.346c0.029-0.284,0.029-0.284-1.08-2.558
						c-1.017,0.568-2.063,2.311-2.072,2.325c-0.14,0.248-1.613,4.145-1.619,4.172c-0.396,1.351-0.799,1.372-1.268,1.395
						c-0.342-0.678-0.279-0.973,0.166-2.054c0.469-1.138,0.027-1.23-0.484-1.334l-1.537-2.38c0.047-0.535,0.047-0.535,2.063-3.541
						c1.612-2.398,5.867-1.205,6.571-4.836c-0.029-0.008-0.029-0.008-2.121,0.967c-0.109-0.054-0.255-0.126-0.366-0.183
						c0.566-0.947,0.681-2.087,1.292-3.016c-0.071-0.147-0.164-0.384-0.314-0.448c-1.42,0.485-1.076,2.697-2.815,2.871
						c-0.094-0.096-0.22-0.223-0.313-0.317c0.11-0.238,0.241-0.562,0.319-0.814c-1.487,0-1.487,0-1.75-0.174
						c-0.288,0.12-0.288,0.12-1.172,0.887c-0.131-0.064-0.306-0.147-0.438-0.212c-0.113-0.581-0.113-0.581,0.546-1.827
						c-0.397-0.701,0.048-1.432-0.075-2.143c-0.199,0.022-0.199,0.022-1.279,0.328c-0.105-0.083-0.246-0.194-0.353-0.279
						c-0.126-1.382,0.935-2.284,1.385-3.432c-0.036,0.013-4.043,1.607-10.233,9.797c0.512-0.509,1.074-0.967,1.593-1.471
						c0.123,0.031,0.286,0.073,0.407,0.104c0.326,0.718,0.203,0.917-0.318,1.761c-0.103,0.167-9.446,18.509-5.158,27.471
						c0.139-0.524,0.139-0.524-0.209-5.317c0.417,0.307,0.417,0.307,0.538,1.82c0.401,5.043,1.597,8.586,3.362,9.976
						c0.352,0.182,0.352,0.182,0.352,0.182c0.001,0,0.001,0,0.001,0l0,0l0,0c0.001,0,0.001,0,0.001,0s0,0,0.002,0c0,0,0,0,0,0.001
						l0,0l0,0c0.015,0.005,0.015,0.005,0.015,0.005c1.62,0.714,7.422,7.479,7.45,7.535c0.038,0.071,0.901,1.783-1.446,3.843
						c-0.008,1.148,1.435,4.242,1.448,4.27c1.58,2.776,4.863,4.129,6.047,7.237c2.443,6.412,2.443,6.412,3.482,7.787
						c3.138,4.145,5.699,4.761,7.568,5.211c-3.13-1.869-3.609-2.155-4.826-4.816c0.996-1.27,0.996-1.27,0.951-1.847
						c1.178-0.135,1.326-0.152,2.242-1.035c0.785-0.755-0.287-1.732,0.301-2.513c0.701-0.935,2.144-0.574,2.796-1.597
						C67.936,277.659,68.693,273.274,68.698,273.234"/>
					<path style="fill:#A4B91A;" d="M60.602,224.324c-0.192,0.364-0.428,0.538-0.704,0.516c-0.015-0.001-1.443-0.13-1.639-0.7
						c-0.177-0.518,0.36-1.399-0.386-1.593c-0.039-0.007-0.039-0.009-0.041-0.009c-0.006,0-0.008-0.001-0.008-0.001
						c-0.012-0.003-0.014-0.003-0.015-0.003c-0.006-0.002-0.008-0.002-0.008-0.002c-0.633-0.146-0.104-0.845,0.422-1.167
						c0.439-0.269,0.476-0.29,0.702-0.628c0.137-0.237,0.274-0.472,0.414-0.704c0.011-0.227,0.011-0.227,0.615-1.182
						c-0.002,0-0.002-0.001-0.004-0.001c-0.002,0-0.003,0-0.004-0.001c-0.002,0-0.003,0-0.004,0
						c-0.002-0.001-0.004-0.001-0.004-0.002c-0.001,0-0.002,0-0.004-0.001c0,0-0.002-0.001-0.004-0.001c0,0-0.002,0-0.004,0
						c0,0,0-0.001-0.002-0.001c-0.537-0.125-0.656-0.232-0.498-0.91c0.129-0.552,0.231-0.987-0.08-1.113
						c-0.383-0.156-0.877,0.092-1.191-0.324c-0.014-0.022-0.037-0.052-0.054-0.073c-0.017-0.023-0.021-0.062-0.028-0.09
						c-0.057-0.198,0.357-0.805,0.818-1.109c0.014-0.009,1.496-0.871,1.81-0.803c0.262,0.101,0.286,0.192,0.328,0.495
						c0.037,0.263,0.469,1.145,0.678,1.337c0.646,0.589,0.818,0.746,0.399,1.62c-0.686,1.428-0.686,1.428-0.251,1.94
						c0.199,0.234,0.217,0.389,0.219,0.398c0.085,0.797-0.408,1.345-0.598,1.452c-0.227,0.13-0.528,0.011-0.728,0.227
						c-0.013,0.014-0.304,0.332-0.142,0.709C60.85,223.167,61.01,223.542,60.602,224.324"/>
					<path style="fill:#A4B91A;" d="M53.682,216.808c-0.174,0.123-0.355,0.126-0.389,0.109c-0.332-0.153-0.189-0.629-0.527-0.781
						c-0.339-0.15-0.587,0.354-0.935,0.13c-0.066-0.043-0.194-0.125-0.149-0.385c0.129-0.758,0.928-0.936,1.29-1.493
						c0.031-0.05,0.031-0.05-0.353-0.256c0.255-0.247,0.61-0.35,0.859-0.604c0.002-0.005,0.314-0.454,0.296-0.569l0,0l0,0l0,0l0,0
						l0,0c0-0.001,0-0.001,0-0.001l0,0l0,0c-0.056-0.009-0.071-0.013-0.287,0.061c-0.168,0.057-0.484,0.163-0.516-0.157
						c-0.017-0.17,0.044-0.286,0.72-0.755c0.866-0.604,1.253-0.476,1.351-0.42c0.059,0.066,0.04,0.164-0.224,0.459
						c-0.182,0.201-0.368,0.408-0.426,0.546c-0.086,0.21,0.178,0.27,0.244,0.416c0.055,0.116,0.012,0.259,0.098,0.367
						c0.019,0.025,0.081,0.079,0.241,0.06c0.065-0.008,0.128-0.083,0.175-0.126c0.387-0.349,0.727-0.344,0.655-0.076
						c-0.009,0.034-0.024,0.084-0.071,0.165c-0.322,0.525-0.759,0.969-1.074,1.5c-0.298,0.501-0.416,0.787-0.496,1.022
						C54.107,216.182,53.959,216.616,53.682,216.808"/>
					<path style="fill:#A4B91A;" d="M58.396,210.223c-0.374,0.232-0.66,0.33-0.868,0.392l-1.065,0.236
						c-0.027,0.005-0.111,0.02-0.092-0.036c0.16-0.429,2.023-1.404,2.631-1.134C59.093,209.778,58.607,210.093,58.396,210.223"/>
					<path style="fill:#A4B91A;" d="M57.98,212.256c-0.144,0.113-0.447,0.35-0.876,0.388c-0.022,0.003-0.05,0.005-0.073,0.005
						c-0.191-0.008-0.275-0.186-0.421-0.267c-0.084-0.047-0.161-0.005-0.302,0.069c-0.113,0.059-0.324,0.169-0.596,0.143
						c-0.174-0.02-0.172-0.082-0.17-0.108c0.004-0.035,0.027-0.118,0.156-0.278c0.137-0.173,0.34-0.276,0.479-0.447
						c0.081-0.107,0.1-0.25,0.211-0.336c0.013-0.01,1.227-0.753,1.344-0.635c-0.016,0.158-0.17,0.265-0.166,0.431
						c0,0.142,0.021,0.154,0.176,0.251c0.025,0.018,0.061,0.04,0.666-0.41c0.234-0.173,0.234-0.173,0.289-0.152
						c0.063,0.064-0.049,0.216-0.32,0.531c-0.161,0.188-0.161,0.188,0.051,0.451C58.279,212.012,58.133,212.138,57.98,212.256"/>
					<path style="fill:#A4B91A;" d="M70.338,208.971c-0.395,0.398-0.998,0.328-1.432,0.636c-0.383,0.271-0.705,0.62-1.105,0.867
						c-0.375,0.23-0.775,0.021-1.161,0.065c-0.151,0.018-0.338,0.053-0.58,0.185c-0.362,0.198-0.658,0.492-1.02,0.689
						c-1.269,0.695-1.495,0.82-1.657,1.406c-0.016,0.057-0.175,0.561-0.988,1.042c-0.032,0.019-0.314,0.181-0.342,0.001
						c-0.025-0.176,0.142-0.352-0.011-0.523c-0.027-0.029-0.027-0.029-0.534-0.084c-0.214-0.024-0.954-0.533-0.249-1.678
						c0.265-0.427,0.275-0.459,0.296-0.617c-0.026-0.031-0.07-0.067-0.11-0.074c0.097-0.066,0.97-0.662,1.492-0.774
						c0.169-0.036,0.623-0.134,1.034-0.601c0.25-0.283,0.375-0.426,1.282-0.982c0.104-0.064,0.232-0.145,0.371-0.209
						c0.018-0.01,1.872-0.799,2.599-0.717c0,0,0,0,0.002,0l0,0l0,0c0,0,0,0,0.002,0c0.207,0.073,0.387,0.213,0.6,0.275l0,0h0.001
						l0,0l0,0c0,0,0,0,0.001,0l0,0l0,0l0,0c0.295,0.049,0.594-0.014,0.887,0.026C71.1,208.203,70.566,208.742,70.338,208.971"/>
					<path style="fill:#A4B91A;" d="M78.678,209.927c-0.053,0.644-0.723,0.843-0.975,1.346c-0.277,0.563-0.205,0.844,0.096,2.033
						c0.027,0.108,0.109,0.439-0.008,0.906c-0.245,0.991-0.811,1.866-1.04,2.864c-0.245,1.061,0.02,2.23-0.682,3.197
						c-0.071,0.098-0.071,0.098-1.454,0.552c-0.631,0.206-1,0.766-1.516,1.128c-0.879,0.618-2.032,0.698-2.846,1.447
						c-0.389,0.358-0.389,0.358-1.822,2.853c-1.353,2.352-2.383,1.078-2.393,1.064c-0.015-0.023-1.313-2.822,0.368-6.391
						c0.87-1.849,0.87-1.849,1.13-4.143c0.208-1.817-0.605-3.132-0.64-3.186c-0.104-0.164-0.285-0.175-0.536-0.19
						c-0.813-0.05-1.334-0.614-1.34-0.618c0.578-1.926,2.734-1.378,3.855-2.454c-0.361,0.148-0.406,0.151-0.617,0.168
						c-0.017-0.031-0.038-0.076-0.054-0.108c0.087-0.149,3.981-2.134,4.016-2.146l2.126-0.235c0.109-0.01,0.783,0.013,0.788,0.014
						c0.595,0.083,0.57,0.782,1.01,1.018c0.153,0.083,0.204,0.244,0.243,0.497c0.091,0.605,0.154,0.774,0.851,0.295
						C78.413,209.029,78.68,209.916,78.678,209.927"/>
					<path style="fill:#A4B91A;" d="M108.691,213.417c3.061,3.041,3.313,3.288,5.108,5.556c2.611,3.63,2.767,3.848,4.088,6.247
						c0.729,1.473,1.685,3.447,2.325,4.964c0.602,1.695,0.602,1.695,0.767,2.1c-0.004-0.014-0.008-0.035-0.012-0.049
						c1.357,4.56,1.384,4.646,1.813,7.164l0.421,3.191c0.038,0.456,0.164,2.056,0.188,3.481c-0.105-1.413-0.105-1.413-0.16-1.81
						c-0.196,8.305-0.196,8.305-0.257,8.705c0.105-1.311,0.105-1.311,0.031-1.835c-1.097,2.145-0.361,4.53-0.887,6.751
						c1.184-7.235,0.145-11.106-0.512-11.761c-1.494,3.555-0.313,7.649-2.248,11.115c-0.084-0.08-0.199-0.184-0.285-0.261
						c0.016-4.784,0.023-7.186-1.46-9.499c-0.038-0.06-4.265,0.485-4.3,0.506c-0.907-0.506-0.854-2.349-2.252-2.036
						c-1.295,0.29-0.682,2.667-0.673,2.69c0.007,0.021,0.717,2.129,2.142,0.845c1.543-1.388,2.359,0.344,2.214,1.482
						c-0.673,5.242-5.085,7.537-5.597,7.315c-0.617-0.266-0.978-1.647-1.844-4.985c-0.976-3.755-1.596-4.319-3.224-4.313
						c0.017,3.247,3.147,9.504,3.609,10.121c0.267,0.355,0.85,0.733,1.231,0.709c0.949-0.06,1.615-0.885,2.563-0.949
						c0.324,1.924-1.744,6.277-1.768,6.31c-1.033,1.506-2.912,2.342-3.392,4.285c-1,4.07-1,4.07-1.807,5.05
						c-2.82,3.427-8.688,10.562-10.279,9.478c-0.135-0.093-0.246-0.287-0.34-0.422c-0.014-0.02-1.391-2.309-0.727-5.861
						c0.017-0.085,1.359-8.744-1.027-10.689c-4.193-3.42-12.773,0.479-14.231-6.815c-0.913-4.565,5.791-13.284,8.815-13.755
						c1.971-0.305,3.631-1.633,5.671-1.7c1.095,2.715,5.324,5.685,5.995,2.961c0.064-0.26-0.014-0.628,0.023-0.894
						c0.451-0.338,0.632-0.4,2.168,0.213c1.075,0.43,3.231,0.012,3.979-0.771c0.688-0.719,0.765-2.438-0.769-2.585
						c-2.153-0.21-2.153-0.21-3.082-2.428c-0.472-0.138-0.544-0.158-1.683,0.409c-0.377,1.151,0.691,1.855,0.88,2.834
						c-3.638,1.345-2.302-5.485-5.868-5.77c-0.445,1.949,1.854,2.428,2.136,3.987c-0.12,0.025-0.276,0.058-0.394,0.083
						c-0.113,0.473-0.052,0.959-0.106,1.436c-0.103,0.064-0.24,0.146-0.343,0.211c-0.179-0.262-0.333-0.661-0.431-0.964
						c-1.785-5.559-6.521-1.939-8.129,1.137c-1.668,3.191-3.973,0.534-3.984,0.486c-0.08-0.296-0.703-2.915,1.354-3.739
						c0.9-0.362,1.443-0.58,1.345-1.614c-1.38-0.358-1.249-2.107,0.22-2.922c1.686-0.938,2.646-5.301,4.589-3.427
						c0.127-0.04,0.296-0.091,0.423-0.129c0.9-1.733,2.75-1.049,4.109-1.615c1.754-0.731-0.498-2.823,0.727-3.965
						c0.451-0.42,1.047-0.241,1.564-0.384c-0.016-0.187-0.016-0.187-2.655-1.556c-1.364-0.707-0.825-2.202-1.349-3.259
						c-1.363,0.685-0.818,4.985-0.808,5.028c0.219,1.023,0.804,3.743-1.038,2.737c-0.906-0.494-1.506-2.303-2.716-1.487
						c-0.175,0.04-0.175,0.04-0.177,0.04c-2.091-0.225-2.184-3.142-2.184-3.171c1.384-0.286,3.714-1.311,3.768-4.955
						c0.041-2.854,0.041-2.854,7.216-1.807c0.879,1.391,0.697,1.501-0.718,2.357c0.645,0.883,0.844,0.935,1.279,1.043l2.25-4.747
						c0.342-0.333,0.342-0.333,1.91-0.312c0.063-0.131,0.146-0.31,0.208-0.443c-0.567-1.279-1.964-1.994-2.328-3.413
						c1.391,0.207,1.391,0.207,5.323,5.428c0.028-0.907-0.404-1.807-2.787-3.962c-1.877-1.698-3.795-4.964-3.809-4.99
						c0.217-0.419-0.033-0.836-0.012-1.253c0.088-0.093,0.205-0.218,0.291-0.31c0.332,0.077,0.332,0.077,3.662,2.211
						c0.123-0.54,0.123-0.54-0.168-1.259c0.44,0.087,0.44,0.087,1.346,0.504c-0.658-0.829-1.99-1.439-2.25-1.598
						C103.35,209.417,106.055,210.971,108.691,213.417"/>
					<path style="fill:#A4B91A;" d="M49.076,254.106c-0.004,0.007-0.383,0.659-0.755,0.436c-0.032-0.02-0.072-0.054-0.103-0.078
						c-0.271-0.239-0.369-0.602-0.61-0.862c-0.253-0.275-0.601-0.439-0.847-0.72c-0.49-0.55-0.49-0.55-0.611-0.6
						c-0.948-0.405-0.948-0.405-1.007-0.527c-0.019-0.036-0.021-0.093-0.03-0.133c0.579,0.126,0.579,0.126,0.734,0.09
						c0.384-0.09,0.384-0.09,0.455-0.076C47.463,251.966,49.302,253.607,49.076,254.106"/>
					<path style="fill:#A4B91A;" d="M51.932,255.933c-0.026,0.139-0.079,0.169-0.142,0.194c-0.133,0.048-0.27-0.027-0.404,0.001
						c-0.17,0.034-0.302,0.177-0.486,0.18c-0.234,0.001-0.758-0.133-0.908-0.359c-0.007-0.011-0.189-0.293,0.098-0.418
						c0.116-0.049,0.175-0.073,0.205-0.164c0.095-0.267-0.135-0.493-0.086-0.755c0.004-0.026,0.021-0.028,0.037-0.027
						c0.005,0.002,0.012,0.004,0.019,0.007c0.144,0.077,0.23,0.226,0.375,0.302c0.289,0.154,0.616,0.22,0.902,0.376
						c0.042,0.024,0.096,0.059,0.131,0.091C51.761,255.429,51.977,255.669,51.932,255.933"/>
					<path style="fill:#A4B91A;" d="M121.145,261.312c-0.059,0.174-0.078,0.224-0.129,0.331c1.117-3.746,0.844-4.934,0.839-4.939
						c-0.065-0.104,0.084-0.506,0.133-0.585c0.011-0.005,0.023-0.015,0.032-0.021c0.049,0.092,0.022,1.579-0.006,1.829
						c-0.068,0.564-0.223,1.26-0.461,2.069L121.145,261.312"/>
					<path style="fill:#A4B91A;" d="M122.192,257.59c0.028-0.126,0.106-0.459,0.19-0.849L122.192,257.59"/>
					<path style="fill:#A4B91A;" d="M108.645,273.442c-0.23,0.505-2.896,4.817-4.298,5.006c-0.009-0.36,1.763-3.873,1.896-4.074
						c0.216-0.328,0.345-0.483,0.535-0.689c0.34-0.365,0.83-0.53,1.18-0.887c0.241-0.245,0.3-0.605,0.539-0.855
						c0.168-0.173,0.262-0.209,0.299-0.224C109.158,271.689,108.963,272.74,108.645,273.442"/>
					<path style="fill:#A4B91A;" d="M79.39,224.083c0.003,0.161-0.017,0.209-0.108,0.311c-0.193,0.205-0.452,0.318-0.66,0.505
						c-0.139,0.126-0.215,0.304-0.355,0.43c-0.023,0.021-0.063,0.041-0.092,0.049c-0.15,0.052-0.881-0.02-0.887-0.02
						c-0.04-0.01-0.594-0.308-0.648-0.363c-0.002-0.002-0.307-0.486-0.316-0.549c-0.024-0.132-0.013-0.29,0.168-0.293
						c0.035-0.001,0.035-0.001,0.07,0.023c-0.11-0.442-0.311-0.505-0.469-0.555c-0.42-0.13-0.186-0.521,0.057-0.521
						c0.492,0.018,0.492,0.018,0.59,0.26c0.049,0.119,0.092,0.167,0.176,0.193c0.4,0.13,0.712-0.223,1.094-0.199
						c0.154,0.01,0.309,0.037,0.467,0.033c0.22-0.007,0.417-0.169,0.648-0.099C79.379,223.364,79.387,223.869,79.39,224.083"/>
					<path style="fill:#A4B91A;" d="M83.061,230.638C83.061,230.638,83.061,230.638,83.061,230.638
						C83.06,230.638,83.06,230.638,83.061,230.638c-0.01,0.007-0.018,0.012-0.023,0.018c0.004,0.007,0.012,0.015,0.018,0.02
						C83.057,230.664,83.06,230.651,83.061,230.638 M87.11,234.282c-0.051-0.46-0.201-0.568-0.413-0.717
						c-0.324-0.233-0.338-0.249-1.346-1.681c-0.094-0.135-0.163-0.288-0.279-0.411c-0.092-0.097-0.238-0.134-0.307-0.26
						c-0.104-0.193-0.098-0.268-0.035-0.485c0.072-0.248,0.074-0.425,0.004-0.529c-0.021-0.031-0.021-0.031-0.479-0.154
						c-0.041-0.208,0.008-0.418-0.012-0.626c-0.079,0.001-0.079,0.001-0.217,0.009c-0.793,0.087-0.855,0.487-0.967,1.21
						c0.266-0.148,0.461,0.077,0.469,0.088c0.088,0.102,0.098,0.213,0.109,0.334c0.016,0.18,0.026,0.29,0.251,0.666
						c0.161,0.273,0.49,0.387,0.649,0.665c0.004,0.006,0.357,0.778,0.241,1.252c-0.063,0.255-0.361,0.366-0.394,0.639
						c-0.034,0.271,0.139,0.529,0.053,0.802c-0.082,0.263-0.176,0.563,0.074,0.757c0.082,0.061,0.262,0.064,0.377,0.03
						c0.039-0.013,0.092-0.032,0.133-0.045c0.223-0.084,0.406-0.25,0.63-0.333c0.239-0.089,0.498-0.08,0.735-0.173
						c0.166-0.064,0.232-0.106,0.334-0.166C87.1,234.928,87.178,234.881,87.11,234.282"/>
					<path style="fill:#A4B91A;" d="M83.613,232.536c-0.006,0.172-0.072,0.336-0.073,0.507c0,0.156,0.009,0.213,0.067,0.518
						c0.105,0.568-0.103,0.917-0.127,0.954c-0.027,0.045-0.645,0.513-0.709,0.54c-0.006,0.001-0.625,0.254-0.807,0.081
						c-0.221-0.208-0.064-0.557,0.027-0.764c0.107-0.241,0.184-0.448,0.049-0.558c-0.037-0.028-0.049-0.038-0.064-0.071
						c-0.049-0.111,0.074-0.25-0.052-0.352c-0.136-0.108-0.136-0.108-0.139-0.154c-0.006-0.071-0.004-0.143-0.004-0.15
						c0.015-0.289,0.208-0.297,0.3-0.301c0.262-0.011,0.262-0.011,0.326-0.064c0.127-0.106,0.107-0.306,0.256-0.396
						c0.002-0.001,0.461-0.126,0.617-0.139C83.512,232.182,83.623,232.298,83.613,232.536"/>
				</g>
			</g>
		</g>
		<g>
			<path style="fill:#88A922;" d="M60.688,233.794c0.065-0.12,0.153-0.283,0.22-0.403c-0.045-0.113-0.104-0.265-0.149-0.377
				c-3.972,0.44-3.972,0.44-4.228,0.78c0.273,0.059,0.632,0.155,0.898,0.235c-0.02,0.096-0.03,0.189-0.034,0.284
				c0.597-0.079,1.478-0.177,2.803-0.323c0.045,0.113,0.104,0.265,0.149,0.378c-0.066,0.12-0.154,0.281-0.221,0.404
				c0.876,0.22,1.161-0.327,1.216-0.977C61.174,233.856,60.961,233.864,60.688,233.794z"/>
			<path style="fill:#88A922;" d="M53.322,229.993c0.009-0.024,1.048-2.771,1.463-3.799c-0.242,0.343-0.396,0.598-0.4,0.603
				c-0.14,0.248-1.613,4.145-1.619,4.172c-0.027,0.086-0.052,0.166-0.076,0.241C52.908,231.04,53.117,230.698,53.322,229.993z"/>
			<path style="fill:#88A922;" d="M52.266,222.08c-1.412,2.102-1.834,2.733-1.976,3.105c0.3-0.465,0.745-1.127,1.417-2.13
				c1.514-2.254,5.36-1.338,6.405-4.23C56.635,220.551,53.576,220.126,52.266,222.08z"/>
			<path style="fill:#88A922;" d="M50.715,210.677c-0.149,0.244-0.295,0.488-0.418,0.744
				C50.449,211.176,50.594,210.932,50.715,210.677z"/>
			<path style="fill:#88A922;" d="M64.951,279.451c-0.149,0.198-0.191,0.409-0.183,0.627c0.756-0.504,1.87-0.384,2.42-1.247
				c0.108-0.172,0.22-0.413,0.325-0.698C66.797,278.811,65.58,278.616,64.951,279.451z"/>
			<path style="fill:#88A922;" d="M51.509,260.622c0.014-0.243,0.026-0.443,0.034-0.612l0,0c-0.145,0.024-0.337,0.057-0.482,0.082
				c-0.006,0.176,0.002,0.353,0.037,0.53C51.222,260.622,51.387,260.622,51.509,260.622z"/>
			<path style="fill:#88A922;" d="M42.756,245.837c-0.195,0.104-0.442,0.507-0.664,1.059c0.035-0.035,0.071-0.063,0.104-0.083
				c0.034-0.019,3.523-1.535,5.061,3.438c0.295-0.721,0.117-1.476,0.075-2.221C45.648,244.575,42.786,245.82,42.756,245.837z"/>
			<path style="fill:#88A922;" d="M57.238,237.3c-0.564-1.604-2.169,1.043-3.291,1.477c-0.255,0.099-0.65,0.027-0.898,0.141
				c-0.283,0.129-0.613,0.413-0.808,0.658c-0.028,0.037-2.927,3.807-3.993,5.859c1.281-2.083,3.408-4.851,3.434-4.883
				c0.194-0.245,0.524-0.529,0.807-0.659c0.248-0.111,0.645-0.041,0.898-0.139c1.123-0.434,2.729-3.08,3.291-1.476
				c0.044,0.125,0.076,0.302,0.109,0.431c0.238,0.069,0.607,0.029,0.826-0.092c0.026-0.297-0.012-0.581-0.086-0.857
				c-0.064-0.005-0.128-0.012-0.181-0.027C57.313,237.603,57.283,237.427,57.238,237.3z"/>
			<path style="fill:#88A922;" d="M55.592,216.856c0.197-0.24,0.346-0.526,0.486-0.822
				C55.883,216.274,55.734,216.562,55.592,216.856z"/>
			<path style="fill:#88A922;" d="M41.734,253.778c0,0,0,0-0.013-0.003c-0.001,0-0.001,0-0.001,0s0,0-0.002,0
				c0-0.001,0-0.001,0-0.001c-0.001,0-0.001,0-0.001,0s0,0-0.001,0v-0.002c0,0,0,0-0.002,0l0,0c0,0,0,0-0.352-0.182
				c-1.765-1.391-2.959-4.933-3.361-9.976c-0.121-1.513-0.121-1.513-0.539-1.819c0.316,4.334,0.346,4.749,0.246,5.177
				c0.552,3.775,1.623,6.437,3.096,7.596c0.352,0.182,0.352,0.182,0.352,0.182c0.001,0,0.001,0,0.001,0l0,0l0,0
				c0.001,0,0.001,0,0.001,0s0,0,0.002,0c0,0,0,0,0,0.001l0,0l0,0c0.015,0.005,0.015,0.005,0.015,0.005
				c0.881,0.389,2.997,2.564,4.751,4.482c-0.123-0.446-0.18-1.019-0.223-1.822C44.142,255.751,42.488,254.111,41.734,253.778z"/>
			<path style="fill:#88A922;" d="M55.857,234.015c0.002-0.006,0.009-0.013,0.014-0.019c-0.298,0.122-0.62,0.181-0.903,0.339
				c-0.261,0.145-0.385,0.305-0.483,0.439C54.791,234.807,55.207,234.854,55.857,234.015z"/>
			<path style="fill:#88A922;" d="M49.186,261.314c-0.004-0.009-0.115-0.137-0.299-0.353c-0.283,0.293-0.48,0.502-0.48,0.504
				c-0.373-0.204-0.69-0.38-0.965-0.542c0.706,0.799,1.176,1.352,1.184,1.367c0.026,0.048,0.412,0.826-0.023,1.944
				C49.832,262.609,49.217,261.375,49.186,261.314z"/>
			<path style="fill:#88A922;" d="M47.441,260.923c-0.434-0.491-0.957-1.077-1.516-1.686
				C46.138,260.012,46.552,260.396,47.441,260.923z"/>
			<path style="fill:#88A922;" d="M42.832,219.641c0.521-0.842,0.645-1.042,0.318-1.76c-0.121-0.03-0.285-0.072-0.407-0.104
				c-0.277,0.27-0.566,0.524-0.853,0.782c-0.423,0.523-0.857,1.075-1.301,1.665c0.512-0.509,1.074-0.967,1.593-1.471
				c0.123,0.031,0.286,0.073,0.407,0.104c0.326,0.718,0.203,0.917-0.318,1.761c-0.103,0.167-9.446,18.509-5.158,27.471
				c0.102-0.388,0.129-0.492-0.006-2.469C34.346,236.266,42.734,219.799,42.832,219.641z"/>
			<path style="fill:#88A922;" d="M58.717,284.451c-1.039-1.375-1.039-1.375-3.482-7.786c-1.184-3.109-4.468-4.462-6.047-7.24
				c-0.014-0.023-1.192-2.557-1.411-3.889c-0.173,0.195-0.365,0.395-0.598,0.598c-0.008,1.148,1.435,4.242,1.448,4.27
				c1.58,2.776,4.863,4.129,6.047,7.237c2.443,6.412,2.443,6.412,3.482,7.787c3.138,4.145,5.699,4.761,7.568,5.211
				c-2.139-1.278-3.041-1.816-3.785-2.879C60.947,287.022,59.871,285.976,58.717,284.451z"/>
			<path style="fill:#88A922;" d="M62.15,283.939c0.907-0.11,1.111-0.198,1.941-0.999c0.235-0.227,0.303-0.474,0.299-0.73
				c-0.695,0.64-0.928,0.668-1.981,0.787C62.438,283.386,62.447,283.515,62.15,283.939z"/>
			<path style="fill:#88A922;" d="M61.53,285c0.23-0.318,0.31-0.481,0.329-0.669c-0.111,0.146-0.242,0.313-0.401,0.516
				C61.482,284.9,61.506,284.947,61.53,285z"/>
			<path style="fill:#88A922;" d="M58.82,223.164c-0.18-0.521,0.359-1.398-0.388-1.594c-0.038-0.008-0.04-0.009-0.042-0.009
				c-0.004-0.002-0.006-0.002-0.008-0.002c-0.01-0.001-0.011-0.001-0.013-0.001c-0.007-0.002-0.008-0.002-0.009-0.003
				c-0.113-0.027-0.187-0.07-0.232-0.128c-0.492,0.343-0.922,0.966-0.327,1.104c0,0,0.002,0,0.008,0.002
				c0.001,0,0.003,0,0.015,0.003c0,0,0.002,0.001,0.008,0.001c0.002,0,0.002,0.002,0.041,0.009c0.746,0.193,0.209,1.075,0.386,1.593
				c0.195,0.57,1.624,0.699,1.639,0.7c0.276,0.022,0.513-0.151,0.704-0.516c0.111-0.214,0.176-0.396,0.215-0.561
				c-0.11,0.073-0.23,0.11-0.357,0.099C60.443,223.861,59.016,223.733,58.82,223.164z"/>
			<path style="fill:#88A922;" d="M61.311,220.913c-0.013,0.015-0.304,0.332-0.142,0.711c0.015,0.037,0.032,0.074,0.046,0.11
				c0.092-0.01,0.182-0.022,0.264-0.07c0.15-0.086,0.486-0.449,0.58-0.99c-0.008,0.003-0.016,0.011-0.021,0.014
				C61.813,220.817,61.51,220.698,61.311,220.913z"/>
			<path style="fill:#88A922;" d="M60.512,217.874c-0.002-0.001-0.004-0.001-0.004-0.001c0-0.001-0.004-0.001-0.004-0.001
				c-0.002,0-0.003,0-0.004,0s-0.004,0-0.004-0.002c-0.002,0-0.002-0.001-0.004-0.001c-0.001,0-0.002,0-0.004,0
				c0,0-0.002-0.001-0.004-0.001c-0.535-0.125-0.654-0.231-0.496-0.911c0.128-0.55,0.23-0.985-0.08-1.111
				c-0.384-0.157-0.878,0.092-1.191-0.324c-0.017-0.022-0.037-0.052-0.055-0.073c-0.006-0.01-0.008-0.02-0.012-0.03
				c-0.352,0.319-0.622,0.753-0.576,0.916c0.008,0.028,0.012,0.066,0.028,0.09c0.017,0.021,0.04,0.051,0.054,0.073
				c0.314,0.416,0.809,0.168,1.191,0.324c0.312,0.126,0.209,0.562,0.08,1.113c-0.158,0.679-0.039,0.785,0.498,0.91
				c0.002,0,0.002,0.001,0.002,0.001c0.002,0,0.004,0,0.004,0c0.002,0,0.002,0.001,0.004,0.001c0.053-0.139,0.189-0.356,0.579-0.972
				C60.515,217.874,60.513,217.874,60.512,217.874z"/>
			<path style="fill:#88A922;" d="M59.9,219.056c0.003-0.056,0.004-0.097,0.014-0.143c-0.493,0.78-0.555,0.885-0.568,1.046
				c0.041-0.053,0.085-0.118,0.141-0.201C59.622,219.523,59.76,219.289,59.9,219.056z"/>
			<path style="fill:#88A922;" d="M52.619,214.132c0.029,0.015,0.051,0.027,0.074,0.04c0.195-0.17,0.412-0.318,0.601-0.494
				C53.072,213.835,52.816,213.942,52.619,214.132z"/>
			<path style="fill:#88A922;" d="M54.996,211.924c0.087-0.13,0.086-0.191,0.046-0.237c-0.014-0.008-0.034-0.017-0.058-0.024
				c-0.012,0.018-0.025,0.037-0.031,0.053C54.915,211.807,54.945,211.87,54.996,211.924z"/>
			<path style="fill:#88A922;" d="M54.861,214.694c0.284-0.404,0.614-0.774,0.873-1.196c0.047-0.081,0.063-0.131,0.071-0.165
				c0.014-0.052,0.008-0.091-0.007-0.122c-0.203,0.263-0.41,0.523-0.58,0.81C55.051,214.304,54.94,214.518,54.861,214.694z"/>
			<path style="fill:#88A922;" d="M54.053,216.304c0.051-0.116,0.09-0.22,0.111-0.284c0.02-0.058,0.041-0.117,0.064-0.183
				c-0.169,0.114-0.342,0.119-0.375,0.104c-0.332-0.156-0.189-0.631-0.529-0.781c-0.338-0.151-0.585,0.352-0.934,0.13
				c-0.052-0.033-0.138-0.091-0.155-0.23c-0.259,0.209-0.491,0.442-0.554,0.82c-0.046,0.26,0.082,0.342,0.149,0.385
				c0.346,0.221,0.592-0.268,0.926-0.131c0.004-0.002,0.01-0.005,0.014-0.006C53.002,216.282,53.029,216.3,54.053,216.304z"/>
			<path style="fill:#88A922;" d="M54.335,211.983L54.335,211.983L54.335,211.983L54.335,211.983L54.335,211.983
				c-0.056-0.011-0.07-0.014-0.286,0.06c-0.096,0.032-0.234,0.077-0.346,0.056c-0.005,0.004-0.008,0.005-0.012,0.009
				c-0.676,0.469-0.736,0.585-0.72,0.755c0.021,0.213,0.167,0.236,0.312,0.213c0.242-0.188,0.537-0.302,0.756-0.523
				C54.041,212.548,54.354,212.098,54.335,211.983z"/>
			<path style="fill:#88A922;" d="M56.949,210.447c0.012-0.009,1.226-0.751,1.344-0.634c-0.02,0.158-0.171,0.265-0.168,0.431
				c0.001,0.057,0.006,0.091,0.021,0.121c0.078-0.04,0.161-0.088,0.25-0.142c0.211-0.13,0.696-0.445,0.605-0.542
				c-0.607-0.27-2.471,0.705-2.631,1.134c-0.02,0.056,0.064,0.041,0.092,0.036l0.262-0.059c0.006-0.003,0.008-0.006,0.012-0.01
				C56.818,210.678,56.838,210.533,56.949,210.447z"/>
			<path style="fill:#88A922;" d="M56.363,212.356c-0.003,0.02-0.014,0.048-0.027,0.081c0.123-0.063,0.195-0.098,0.274-0.055
				c0.146,0.081,0.23,0.259,0.421,0.267c0.023,0,0.051-0.002,0.073-0.005c0.429-0.038,0.732-0.274,0.876-0.388
				c0.152-0.118,0.299-0.244,0.447-0.365c-0.212-0.264-0.212-0.264-0.051-0.451c0.031-0.04,0.057-0.067,0.084-0.103
				c-0.161,0.122-0.429,0.295-0.797,0.329c-0.024,0.004-0.049,0.006-0.073,0.004c-0.191-0.005-0.275-0.184-0.421-0.265
				c-0.083-0.047-0.161-0.007-0.301,0.069c-0.113,0.059-0.324,0.169-0.596,0.142c-0.006,0-0.01-0.002-0.015-0.003
				c-0.024,0.051-0.048,0.102-0.081,0.146c-0.139,0.171-0.342,0.274-0.479,0.447c-0.129,0.16-0.152,0.243-0.156,0.278
				c0,0.014,0,0.037,0.025,0.061c0.053-0.023,0.104-0.079,0.142-0.114C56.098,212.083,56.436,212.089,56.363,212.356z"/>
			<path style="fill:#88A922;" d="M68.906,209.607c0.149-0.105,0.32-0.167,0.494-0.217c0.011-0.01,0.024-0.02,0.035-0.031
				c-0.361,0.149-0.405,0.151-0.617,0.169c-0.016-0.032-0.036-0.077-0.053-0.108c0.041-0.071,0.924-0.546,1.852-1.034
				c-0.017-0.047-0.048-0.099-0.098-0.146c-0.346,0.144-0.742,0.171-1.053,0.392c-0.385,0.27-0.705,0.619-1.105,0.866
				c-0.377,0.232-0.775,0.023-1.162,0.067c-0.15,0.017-0.337,0.052-0.58,0.184c-0.361,0.199-0.657,0.493-1.02,0.689
				c-1.269,0.695-1.495,0.82-1.656,1.407c-0.008,0.027-0.051,0.161-0.187,0.348c0.233-0.2,0.611-0.41,1.283-0.778
				c0.361-0.197,0.657-0.491,1.02-0.689c0.24-0.131,0.427-0.167,0.577-0.185c0.582-0.306,1.293-0.417,1.92-0.659
				C68.671,209.788,68.785,209.693,68.906,209.607z"/>
			<path style="fill:#88A922;" d="M62.613,212.885c-0.027-0.174,0.141-0.351-0.012-0.521c-0.027-0.031-0.027-0.031-0.535-0.086
				c-0.207-0.023-0.92-0.515-0.282-1.613c-0.175,0.109-0.306,0.198-0.34,0.222c0.04,0.007,0.084,0.043,0.11,0.074
				c-0.021,0.158-0.031,0.19-0.296,0.617c-0.705,1.145,0.035,1.653,0.249,1.678c0.507,0.055,0.507,0.055,0.534,0.084
				c0.152,0.171-0.015,0.348,0.011,0.523c0.027,0.18,0.31,0.018,0.342-0.001c0.813-0.48,0.973-0.985,0.988-1.042
				c0.041-0.151,0.089-0.271,0.155-0.379c-0.144,0.142-0.327,0.294-0.585,0.443C62.923,212.903,62.641,213.065,62.613,212.885z"/>
			<path style="fill:#88A922;" d="M78.264,210.297c-0.092,0.185-0.145,0.34-0.165,0.509c0.267-0.242,0.546-0.472,0.579-0.879
				c0-0.003-0.008-0.036-0.033-0.084C78.496,209.978,78.354,210.118,78.264,210.297z"/>
			<path style="fill:#88A922;" d="M76.069,220.274c0.198-0.273,0.318-0.564,0.396-0.862c-0.156,0.065-0.494,0.176-1.29,0.436
				c-0.632,0.208-1.001,0.769-1.517,1.13c-0.879,0.618-2.033,0.697-2.844,1.445c-0.391,0.359-0.391,0.359-1.824,2.854
				c-1.351,2.353-2.381,1.079-2.392,1.065c-0.015-0.022-1.313-2.823,0.37-6.391c0.868-1.848,0.868-1.848,1.129-4.143
				c0.207-1.816-0.605-3.131-0.641-3.187c-0.104-0.163-0.284-0.174-0.535-0.19c-0.711-0.043-1.2-0.479-1.314-0.591
				c-0.251,0.228-0.457,0.526-0.586,0.95c0.006,0.004,0.526,0.568,1.34,0.618c0.251,0.016,0.432,0.026,0.536,0.19
				c0.034,0.054,0.848,1.368,0.64,3.186c-0.26,2.294-0.26,2.294-1.13,4.143c-1.681,3.568-0.383,6.367-0.368,6.391
				c0.01,0.014,1.04,1.287,2.393-1.064c1.434-2.494,1.434-2.494,1.822-2.853c0.813-0.749,1.967-0.829,2.846-1.447
				c0.516-0.362,0.885-0.922,1.516-1.128C75.998,220.372,75.998,220.372,76.069,220.274z"/>
			<path style="fill:#88A922;" d="M122.165,245.145c-0.165,0.393-0.292,0.791-0.399,1.195c0.422,0.699,0.91,2.578,0.889,5.675
				c0.09-0.298,0.202-0.593,0.35-0.884c0.025,0.163,0.041,0.276,0.047,0.393c0.018-0.596,0.041-1.479,0.072-2.812
				C122.938,246.667,122.502,245.481,122.165,245.145z"/>
			<path style="fill:#88A922;" d="M94.602,237.737c-0.1,0.432-0.058,0.791,0.063,1.106c2.793,0.989,1.838,6.896,5.245,5.639
				c-0.053-0.285-0.185-0.547-0.33-0.803C97.037,243.638,97.836,237.993,94.602,237.737z"/>
			<path style="fill:#88A922;" d="M122.291,256.716c-0.053,0.381-0.108,0.766-0.174,1.166
				C122.209,257.499,122.26,257.11,122.291,256.716z"/>
			<path style="fill:#88A922;" d="M101.375,208.123c0.518,0.34,1.088,0.699,1.692,1.085c0.001-0.01,0.005-0.021,0.005-0.031
				C102.4,208.63,101.574,208.244,101.375,208.123z"/>
			<path style="fill:#88A922;" d="M122.414,255.726c-0.038-0.06-0.002-0.223,0.043-0.362c0.132-1.242,0.191-2.355,0.197-3.349
				c-0.455,1.524-0.236,3.136-0.363,4.701C122.338,256.376,122.377,256.049,122.414,255.726z"/>
			<path style="fill:#88A922;" d="M109.707,257.304c-0.619-0.267-0.978-1.648-1.846-4.986c-0.976-3.755-1.596-4.319-3.222-4.313
				c0.001,0.314,0.032,0.656,0.087,1.02c1.164,0.184,1.742,1.062,2.576,4.27c0.866,3.338,1.227,4.72,1.844,4.985
				c0.398,0.174,3.143-1.173,4.667-4.233C112.257,256.417,110.059,257.458,109.707,257.304z"/>
			<path style="fill:#88A922;" d="M118.172,246.499c-0.038-0.061-4.264,0.486-4.299,0.508c-0.908-0.507-0.854-2.35-2.252-2.037
				c-0.517,0.115-0.729,0.565-0.797,1.064c0.072-0.038,0.149-0.067,0.236-0.088c1.398-0.313,1.345,1.53,2.252,2.036
				c0.035-0.02,4.262-0.565,4.3-0.506c1.483,2.314,1.476,4.715,1.46,9.499c0.086,0.077,0.201,0.181,0.285,0.261
				c0.192-0.344,0.346-0.695,0.482-1.049c-0.071-0.063-0.145-0.133-0.207-0.189C119.648,251.215,119.654,248.814,118.172,246.499z"
				/>
			<path style="fill:#88A922;" d="M107.039,268.004c0.783-1.029,1.941-1.762,2.676-2.832c0.005-0.006,0.117-0.237,0.279-0.608
				C109.031,265.729,107.623,266.54,107.039,268.004z"/>
			<path style="fill:#88A922;" d="M95.023,224.761c-1.364-0.707-0.825-2.202-1.35-3.259c-0.341,0.172-0.561,0.569-0.701,1.069
				c0.045-0.035,0.092-0.066,0.143-0.092c0.524,1.057-0.016,2.552,1.349,3.259c0.792,0.41,1.342,0.695,1.731,0.903
				c0.438-0.334,0.994-0.189,1.482-0.325C97.663,226.131,97.663,226.131,95.023,224.761z"/>
			<path style="fill:#88A922;" d="M104.354,242.689c-2.155-0.209-2.155-0.209-3.083-2.427c-0.473-0.139-0.545-0.158-1.682,0.409
				c-0.087,0.266-0.094,0.505-0.057,0.731c0.669-0.311,0.787-0.278,1.179-0.164c0.929,2.218,0.929,2.218,3.082,2.428
				c1.069,0.103,1.354,0.97,1.196,1.729c0.047-0.04,0.094-0.08,0.133-0.123C105.811,244.556,105.887,242.837,104.354,242.689z"/>
			<path style="fill:#88A922;" d="M98.953,246.725c0.012-0.052,0.016-0.108,0.02-0.166c-0.221,0.012-0.364,0.105-0.557,0.25
				c-0.033,0.235,0.02,0.548-0.012,0.798C98.656,247.437,98.849,247.151,98.953,246.725z"/>
			<path style="fill:#88A922;" d="M90.582,218.421c-0.592,0.313-0.603,1.014-0.621,2.251c-0.014,0.93-0.178,1.686-0.433,2.307
				c0.563-0.743,0.971-1.791,0.993-3.283C90.527,219.182,90.536,218.761,90.582,218.421z"/>
			<path style="fill:#88A922;" d="M100.158,217.363c-0.054,0.041-0.106,0.093-0.17,0.156l-1.776,3.748
				c0.028,0.007,0.056,0.014,0.085,0.022L100.158,217.363z"/>
			<path style="fill:#88A922;" d="M102.666,215.788c-0.295-0.668-0.816-1.183-1.299-1.723c-0.59-0.564-0.937-0.617-1.589-0.714
				c0.312,1.206,1.363,1.905,2.022,2.872c0.182,0.001,0.397,0.004,0.658,0.009C102.521,216.099,102.604,215.92,102.666,215.788z"/>
			<path style="fill:#88A922;" d="M86.047,238.758c-0.77-0.198-1.07-0.836-0.925-1.499c-0.884,0.886-0.798,2.175,0.365,2.477
				c0.01,0.1,0.009,0.186,0.007,0.271C85.898,239.76,86.112,239.434,86.047,238.758z"/>
			<path style="fill:#88A922;" d="M94.797,283.008c-0.135-0.092-0.248-0.287-0.34-0.422c-0.014-0.02-1.392-2.309-0.728-5.861
				c0.017-0.085,1.36-8.744-1.026-10.69c-4.195-3.419-12.773,0.48-14.232-6.815c-0.34-1.702,0.377-3.98,1.57-6.193
				c-1.516,2.503-2.521,5.217-2.13,7.171c1.458,7.294,10.038,3.395,14.231,6.815c2.387,1.945,1.044,10.604,1.027,10.689
				c-0.664,3.553,0.713,5.841,0.727,5.861c0.094,0.135,0.205,0.329,0.34,0.422c1.591,1.084,7.459-6.051,10.279-9.478
				c0.381-0.462,0.582-0.707,0.793-1.263c-0.07,0.088-0.145,0.182-0.232,0.284C102.256,276.958,96.387,284.09,94.797,283.008z"/>
			<path style="fill:#88A922;" d="M95.733,227.546c-0.062,0.036-0.122,0.079-0.179,0.132c-0.834,0.777-0.058,1.994-0.028,2.923
				C96.687,229.99,95.676,228.638,95.733,227.546z"/>
			<path style="fill:#88A922;" d="M123.051,251.524c-0.002,0.086-0.003,0.169-0.006,0.242c0.004-0.02,0.008-0.04,0.011-0.059
				C123.056,251.641,123.055,251.581,123.051,251.524z"/>
			<path style="fill:#88A922;" d="M89.113,227.782c-0.174,0.04-0.174,0.04-0.176,0.04c-1.392-0.148-1.898-1.487-2.08-2.376
				c-0.234,0.079-0.461,0.14-0.664,0.182c0,0.029,0.093,2.946,2.184,3.171c0.002,0,0.002,0,0.177-0.04
				c1.21-0.815,1.81,0.993,2.716,1.487c0.989,0.539,1.279,0.006,1.299-0.762c-0.186,0.017-0.426-0.044-0.738-0.215
				C90.923,228.775,90.324,226.966,89.113,227.782z"/>
			<path style="fill:#88A922;" d="M97.336,220.653c0.324-0.256,0.435-0.478,0.342-0.818c-0.178,0.121-0.396,0.254-0.658,0.412
				C97.141,220.412,97.241,220.541,97.336,220.653z"/>
			<path style="fill:#88A922;" d="M105.661,217.801c0.03-0.905-0.403-1.806-2.786-3.961c-1.878-1.697-3.796-4.964-3.811-4.99
				c0.079-0.15,0.095-0.301,0.087-0.448c-0.178-0.094-0.253-0.112-0.366-0.138c-0.086,0.092-0.203,0.217-0.291,0.31
				c-0.021,0.417,0.229,0.834,0.012,1.253c0.008,0.018,0.845,1.439,1.95,2.895c-0.046-0.113-0.085-0.227-0.116-0.348
				C101.729,212.581,101.729,212.581,105.661,217.801z"/>
			<path style="fill:#88A922;" d="M87.332,243.626c-1.667,3.191-3.971,0.532-3.984,0.485c-0.048-0.182-0.303-1.244-0.012-2.227
				c-1.056,1.09-0.613,2.957-0.547,3.204c0.012,0.048,2.316,2.705,3.984-0.486c1.607-3.076,6.344-6.696,8.129-1.137
				c0.098,0.303,0.252,0.702,0.431,0.964c0.103-0.064,0.239-0.147,0.343-0.211c0.041-0.354,0.019-0.714,0.049-1.069
				c-0.107-0.218-0.197-0.459-0.264-0.659C93.678,236.93,88.941,240.55,87.332,243.626z"/>
			<path style="fill:#88A922;" d="M103.019,209.444c-0.108-0.049-0.191-0.081-0.267-0.107c0.086,0.054,0.165,0.102,0.254,0.16
				C103.011,209.479,103.016,209.463,103.019,209.444z"/>
			<path style="fill:#88A922;" d="M48.779,253.485c-0.147-0.128-0.244-0.294-0.34-0.459c-0.592-0.586-1.475-1.201-2.137-1.391
				c-0.071-0.014-0.071-0.014-0.455,0.076c-0.155,0.036-0.155,0.036-0.734-0.09c0.009,0.04,0.012,0.097,0.03,0.133
				c0.059,0.122,0.059,0.122,1.007,0.527c0.121,0.05,0.121,0.05,0.611,0.6c0.246,0.281,0.594,0.444,0.847,0.72
				c0.241,0.26,0.339,0.623,0.61,0.862c0.03,0.024,0.07,0.059,0.103,0.078c0.372,0.224,0.751-0.429,0.755-0.436
				c0.055-0.12-0.013-0.308-0.159-0.525c-0.011-0.005-0.022-0.008-0.036-0.016C48.85,253.545,48.809,253.512,48.779,253.485z"/>
			<path style="fill:#88A922;" d="M50.551,254.973c-0.004-0.008-0.061-0.096-0.063-0.195c-0.07-0.067-0.139-0.14-0.226-0.187
				c-0.007-0.003-0.014-0.005-0.019-0.007c-0.016-0.001-0.033,0.001-0.037,0.027c-0.049,0.262,0.181,0.488,0.086,0.755
				c-0.03,0.091-0.089,0.115-0.205,0.164c-0.287,0.125-0.104,0.407-0.098,0.418c0.15,0.226,0.674,0.36,0.908,0.359
				c0.185-0.003,0.316-0.146,0.486-0.18c0.135-0.028,0.271,0.047,0.404-0.001c0.063-0.025,0.116-0.056,0.142-0.194
				c0.045-0.265-0.171-0.504-0.261-0.573c-0.021-0.019-0.048-0.038-0.075-0.057c-0.043,0.017-0.088,0.026-0.137,0.027
				C51.225,255.333,50.701,255.198,50.551,254.973z"/>
			<path style="fill:#88A922;" d="M122.02,256.098c-0.009,0.006-0.021,0.016-0.032,0.021c-0.049,0.079-0.198,0.48-0.133,0.585
				c0.005,0.006,0.278,1.193-0.839,4.939c0.051-0.107,0.07-0.157,0.129-0.331l0.408-1.315c0.238-0.81,0.393-1.505,0.461-2.069
				C122.042,257.677,122.068,256.19,122.02,256.098z"/>
			<path style="fill:#88A922;" d="M122.383,256.742l-0.19,0.849C122.221,257.464,122.299,257.131,122.383,256.742z"/>
			<path style="fill:#88A922;" d="M104.906,277.471c-0.007-0.268,0.967-2.273,1.525-3.37c-0.057,0.079-0.118,0.165-0.188,0.272
				c-0.133,0.201-1.904,3.714-1.896,4.074c1.402-0.189,4.067-4.501,4.298-5.006c0.012-0.027,0.023-0.055,0.033-0.082
				C107.783,274.782,105.977,277.327,104.906,277.471z"/>
			<path style="fill:#88A922;" d="M78.174,225.376c0.029-0.008,0.068-0.028,0.092-0.049c0.141-0.126,0.217-0.304,0.355-0.43
				c0.208-0.186,0.467-0.3,0.66-0.505c0.092-0.102,0.111-0.149,0.108-0.311c-0.001-0.076-0.003-0.189-0.017-0.309
				c-0.066,0.046-0.131,0.093-0.191,0.147c-0.139,0.126-0.215,0.305-0.357,0.43c-0.023,0.02-0.061,0.04-0.09,0.05
				c-0.15,0.051-0.881-0.021-0.888-0.021c-0.039-0.012-0.595-0.308-0.649-0.363c-0.001-0.002-0.191-0.307-0.276-0.463
				c-0.002-0.001-0.005-0.001-0.008-0.002c-0.084-0.026-0.127-0.074-0.176-0.193c-0.098-0.241-0.098-0.241-0.59-0.26
				c-0.242,0.001-0.477,0.392-0.057,0.521c0.158,0.05,0.358,0.112,0.469,0.555c-0.035-0.024-0.035-0.024-0.07-0.023
				c-0.181,0.003-0.191,0.161-0.168,0.293c0.01,0.063,0.314,0.547,0.316,0.549c0.055,0.056,0.608,0.354,0.648,0.363
				C77.293,225.356,78.023,225.428,78.174,225.376z"/>
			<path style="fill:#88A922;" d="M84.175,231.559c-0.006,0.138-0.049,0.271-0.065,0.406c0.154,0.132,0.327,0.244,0.43,0.425
				c0.004,0.006,0.357,0.778,0.241,1.252c-0.063,0.255-0.361,0.366-0.394,0.639c-0.034,0.271,0.139,0.529,0.053,0.802
				c-0.082,0.263-0.176,0.563,0.074,0.757c0.082,0.061,0.262,0.064,0.377,0.03c0.039-0.013,0.092-0.032,0.133-0.045
				c0.223-0.084,0.406-0.25,0.63-0.333c0.239-0.089,0.498-0.08,0.735-0.173c0.166-0.064,0.232-0.106,0.334-0.166
				c0.377-0.225,0.455-0.271,0.388-0.871c0-0.004-0.002-0.007-0.002-0.01c-0.044,0.021-0.092,0.044-0.159,0.07
				c-0.238,0.094-0.498,0.084-0.736,0.172c-0.225,0.083-0.406,0.25-0.63,0.333c-0.042,0.014-0.093,0.031-0.134,0.046
				c-0.113,0.035-0.295,0.031-0.376-0.03c-0.249-0.195-0.155-0.493-0.075-0.756c0.086-0.274-0.086-0.533-0.053-0.803
				c0.033-0.273,0.332-0.384,0.395-0.639c0.08-0.32-0.057-0.773-0.154-1.037c-0.035-0.054-0.068-0.107-0.113-0.155
				c-0.092-0.097-0.238-0.134-0.307-0.26c-0.044-0.083-0.064-0.145-0.074-0.205c-0.092-0.076-0.18-0.155-0.242-0.261
				c-0.225-0.375-0.234-0.486-0.25-0.668c-0.012-0.117-0.023-0.229-0.11-0.333c-0.007-0.01-0.202-0.235-0.469-0.086v0.001
				c-0.001,0.013-0.003,0.025-0.007,0.038c-0.005-0.007-0.012-0.014-0.018-0.021c0.007-0.006,0.014-0.012,0.023-0.018
				c0.001,0,0.001-0.001,0.001-0.001c0.009-0.05,0.016-0.095,0.023-0.142c-0.431,0.17-0.493,0.538-0.583,1.118
				c0.266-0.148,0.461,0.077,0.469,0.088c0.088,0.102,0.098,0.213,0.109,0.334c0.006,0.064,0.012,0.12,0.026,0.183
				c0.071-0.017,0.135-0.027,0.177-0.031C84.072,231.206,84.183,231.322,84.175,231.559z"/>
			<path style="fill:#88A922;" d="M83.037,230.656c0.004,0.007,0.012,0.015,0.018,0.02c0.002-0.013,0.005-0.025,0.006-0.038
				c0,0,0,0,0-0.001c-0.001,0.001-0.001,0.001-0.001,0.001C83.051,230.645,83.043,230.65,83.037,230.656z"/>
			<path style="fill:#88A922;" d="M81.925,233.391c0.126,0.102,0.003,0.24,0.052,0.352c0.016,0.033,0.027,0.043,0.064,0.071
				c0.136,0.109,0.059,0.316-0.049,0.558c-0.092,0.207-0.248,0.556-0.027,0.764c0.182,0.173,0.801-0.08,0.807-0.081
				c0.064-0.027,0.682-0.495,0.709-0.54c0.021-0.029,0.156-0.266,0.154-0.649c-0.143,0.105-0.275,0.2-0.305,0.212
				c-0.006,0.003-0.625,0.255-0.805,0.083c-0.221-0.209-0.066-0.558,0.026-0.766c0.107-0.24,0.185-0.447,0.049-0.556
				c-0.038-0.03-0.049-0.04-0.063-0.072c-0.039-0.085,0.022-0.184,0.001-0.27c-0.033,0.082-0.061,0.167-0.131,0.226
				c-0.065,0.054-0.065,0.054-0.326,0.064c-0.092,0.004-0.285,0.012-0.3,0.301c0,0.008-0.002,0.079,0.004,0.15
				C81.789,233.283,81.789,233.283,81.925,233.391z"/>
		</g>
	</g>
</g>
<g>
	<g>
		<g>
			<polygon style="fill:#DADADA;" points="92.982,129.075 40.137,138.164 39.768,137.952 92.611,128.864 80.556,58.745 
				80.973,59.221 			"/>
			
				<rect x="33.351" y="62.773" transform="matrix(0.9855 -0.1695 0.1695 0.9855 -15.7984 11.6195)" style="fill:#EDEDED;" width="53.621" height="71.149"/>
			
				<rect x="36.586" y="70.507" transform="matrix(0.9856 -0.1694 0.1694 0.9856 -11.3423 10.3235)" style="fill:#DADADA;" width="36.502" height="2.268"/>
			
				<rect x="43.433" y="110.343" transform="matrix(0.9855 -0.1695 0.1695 0.9855 -17.9983 12.065)" style="fill:#DADADA;" width="36.503" height="2.269"/>
			
				<rect x="34.722" y="75.169" transform="matrix(0.9855 -0.1694 0.1694 0.9855 -12.0188 10.63)" style="fill:#DADADA;" width="43.105" height="1.135"/>
			
				<rect x="35.316" y="78.623" transform="matrix(0.9855 -0.1695 0.1695 0.9855 -12.5967 10.7815)" style="fill:#DADADA;" width="43.103" height="1.135"/>
			<polygon style="fill:#DADADA;" points="78.799,79.554 36.318,86.857 36.125,85.739 78.604,78.437 			"/>
			
				<rect x="36.505" y="85.534" transform="matrix(0.9855 -0.1695 0.1695 0.9855 -13.7537 11.0859)" style="fill:#DADADA;" width="43.102" height="1.133"/>
			
				<rect x="37.098" y="88.99" transform="matrix(0.9855 -0.1695 0.1695 0.9855 -14.3287 11.2346)" style="fill:#DADADA;" width="43.104" height="1.134"/>
			
				<rect x="37.692" y="92.444" transform="matrix(0.9855 -0.1695 0.1695 0.9855 -14.9043 11.384)" style="fill:#DADADA;" width="43.103" height="1.135"/>
			<polygon style="fill:#DADADA;" points="81.175,93.374 38.693,100.678 38.504,99.559 80.98,92.256 			"/>
			
				<rect x="38.88" y="99.355" transform="matrix(0.9856 -0.1693 0.1693 0.9856 -16.0476 11.6761)" style="fill:#DADADA;" width="43.103" height="1.135"/>
			<polygon style="fill:#DADADA;" points="82.361,100.284 39.881,107.588 39.69,106.472 82.168,99.168 			"/>
			<polygon style="fill:#DADADA;" points="82.955,103.741 40.477,111.044 40.283,109.927 82.764,102.62 			"/>
			
				<rect x="41.588" y="115.108" transform="matrix(0.9855 -0.1695 0.1695 0.9855 -18.6899 12.3732)" style="fill:#DADADA;" width="43.104" height="1.134"/>
			
				<rect x="42.182" y="118.562" transform="matrix(0.9855 -0.1694 0.1694 0.9855 -19.2641 12.522)" style="fill:#DADADA;" width="43.104" height="1.134"/>
			<polygon style="fill:#DADADA;" points="85.665,119.492 43.185,126.795 42.991,125.677 85.471,118.374 			"/>
		</g>
	</g>
	<g>
		<g>
			<polygon style="fill:#DADADA;" points="75.844,140.436 24.511,124.935 24.274,124.58 75.606,140.083 96.18,71.971 96.338,72.586 
							"/>
			
				<rect x="24.651" y="71.464" transform="matrix(0.2891 -0.9573 0.9573 0.2891 -51.2645 127.5155)" style="fill:#F6F6F6;" width="71.152" height="53.622"/>
			
				<rect x="66.275" y="53.755" transform="matrix(0.2892 -0.9573 0.9573 0.2892 -21.0161 115.7114)" style="fill:#DADADA;" width="2.265" height="36.504"/>
			
				<rect x="54.584" y="92.452" transform="matrix(0.2892 -0.9573 0.9573 0.2892 -66.3664 132.0301)" style="fill:#DADADA;" width="2.269" height="36.502"/>
			
				<rect x="66.295" y="54.761" transform="matrix(0.2892 -0.9573 0.9573 0.2892 -25.5251 118.251)" style="fill:#DADADA;" width="1.132" height="43.103"/>
			
				<rect x="65.281" y="58.117" transform="matrix(0.2892 -0.9573 0.9573 0.2892 -29.4581 119.6664)" style="fill:#DADADA;" width="1.135" height="43.103"/>
			
				<rect x="64.266" y="61.473" transform="matrix(0.2891 -0.9573 0.9573 0.2891 -33.3901 121.085)" style="fill:#DADADA;" width="1.136" height="43.103"/>
			<polygon style="fill:#DADADA;" points="84.285,93.155 43.023,80.692 43.355,79.606 84.615,92.068 			"/>
			
				<rect x="62.238" y="68.187" transform="matrix(0.2891 -0.9573 0.9573 0.2891 -41.2559 123.9232)" style="fill:#DADADA;" width="1.135" height="43.102"/>
			
				<rect x="61.226" y="71.541" transform="matrix(0.2892 -0.9573 0.9573 0.2892 -45.1908 125.3273)" style="fill:#DADADA;" width="1.133" height="43.104"/>
			
				<rect x="60.212" y="74.897" transform="matrix(0.2891 -0.9573 0.9573 0.2891 -49.1239 126.745)" style="fill:#DADADA;" width="1.134" height="43.103"/>
			
				<rect x="59.198" y="78.253" transform="matrix(0.2892 -0.9573 0.9573 0.2892 -53.0597 128.1529)" style="fill:#DADADA;" width="1.133" height="43.105"/>
			<polygon style="fill:#DADADA;" points="79.217,109.938 37.957,97.475 38.283,96.386 79.547,108.851 			"/>
			
				<rect x="57.17" y="84.967" transform="matrix(0.2891 -0.9573 0.9573 0.2891 -60.9238 130.9936)" style="fill:#DADADA;" width="1.136" height="43.103"/>
			
				<rect x="54.576" y="93.556" transform="matrix(0.2891 -0.9573 0.9573 0.2891 -70.9903 134.6159)" style="fill:#DADADA;" width="1.135" height="43.102"/>
			
				<rect x="53.563" y="96.91" transform="matrix(0.2892 -0.9573 0.9573 0.2892 -74.9238 136.0262)" style="fill:#DADADA;" width="1.134" height="43.105"/>
			
				<rect x="52.548" y="100.266" transform="matrix(0.2892 -0.9573 0.9573 0.2892 -78.8566 137.4419)" style="fill:#DADADA;" width="1.137" height="43.104"/>
		</g>
	</g>
	<g>
		<g>
			<polygon style="fill:#DADADA;" points="106.549,136.617 54.271,148.553 53.89,148.36 106.168,136.429 90.33,67.059 
				90.771,67.514 			"/>
			
				<rect x="45.301" y="72.135" transform="matrix(0.9749 -0.2225 0.2225 0.9749 -22.1575 18.7442)" style="fill:#FFFFFF;" width="53.621" height="71.152"/>
			
				<rect x="47.098" y="80.196" transform="matrix(0.9749 -0.2225 0.2225 0.9749 -16.456 16.5767)" style="fill:#DADADA;" width="36.503" height="2.269"/>
			
				<rect x="56.093" y="119.606" transform="matrix(0.9749 -0.2226 0.2226 0.9749 -25.0105 19.5778)" style="fill:#DADADA;" width="36.503" height="2.267"/>
			
				<rect x="45.453" y="84.776" transform="matrix(0.9749 -0.2226 0.2226 0.9749 -17.3175 17.0585)" style="fill:#DADADA;" width="43.104" height="1.133"/>
			
				<rect x="46.235" y="88.192" transform="matrix(0.9749 -0.2226 0.2226 0.9749 -18.0551 17.3137)" style="fill:#DADADA;" width="43.102" height="1.134"/>
			
				<rect x="47.014" y="91.609" transform="matrix(0.9749 -0.2226 0.2226 0.9749 -18.7973 17.5744)" style="fill:#DADADA;" width="43.105" height="1.136"/>
			<polygon style="fill:#DADADA;" points="90.482,91.35 48.463,100.945 48.209,99.841 90.233,90.245 			"/>
			
				<rect x="48.576" y="98.446" transform="matrix(0.9749 -0.2226 0.2226 0.9749 -20.2801 18.0937)" style="fill:#DADADA;" width="43.104" height="1.136"/>
			
				<rect x="49.355" y="101.865" transform="matrix(0.9749 -0.2226 0.2226 0.9749 -21.0204 18.3518)" style="fill:#DADADA;" width="43.103" height="1.133"/>
			
				<rect x="50.137" y="105.282" transform="matrix(0.9749 -0.2226 0.2226 0.9749 -21.7634 18.6135)" style="fill:#DADADA;" width="43.103" height="1.136"/>
			<polygon style="fill:#DADADA;" points="93.605,105.025 51.584,114.616 51.331,113.513 93.352,103.919 			"/>
			
				<rect x="51.696" y="112.12" transform="matrix(0.9749 -0.2226 0.2226 0.9749 -23.2503 19.1364)" style="fill:#DADADA;" width="43.104" height="1.133"/>
			
				<rect x="52.476" y="115.535" transform="matrix(0.9749 -0.2226 0.2226 0.9749 -23.9839 19.3885)" style="fill:#DADADA;" width="43.104" height="1.136"/>
			
				<rect x="54.474" y="124.284" transform="matrix(0.9749 -0.2226 0.2226 0.9749 -25.8813 20.0531)" style="fill:#DADADA;" width="43.103" height="1.131"/>
			
				<rect x="55.254" y="127.701" transform="matrix(0.9749 -0.2226 0.2226 0.9749 -26.6284 20.3181)" style="fill:#DADADA;" width="43.103" height="1.135"/>
			
				<rect x="56.035" y="131.118" transform="matrix(0.9749 -0.2226 0.2226 0.9749 -27.3648 20.5729)" style="fill:#DADADA;" width="43.102" height="1.135"/>
		</g>
	</g>
</g>
<g>
	<g>
		<g>
			<path style="fill:#F4A186;" d="M363.053,64.522c-9.609,0-17.429-7.821-17.429-17.43c0-9.61,7.819-17.43,17.429-17.43
				c9.61,0,17.431,7.819,17.431,17.43C380.483,56.701,372.663,64.522,363.053,64.522z M363.053,31.273
				c-8.722,0-15.819,7.096-15.819,15.819c0,8.724,7.098,15.82,15.819,15.82c8.725,0,15.821-7.097,15.821-15.82
				C378.874,38.369,371.777,31.273,363.053,31.273z"/>
		</g>
		<g>
			<path style="fill:#F4A186;" d="M363.053,64.522c-5.815,0-10.547-7.821-10.547-17.43c0-9.61,4.731-17.43,10.547-17.43
				c5.816,0,10.548,7.819,10.548,17.43C373.601,56.701,368.869,64.522,363.053,64.522z M363.053,31.273
				c-4.928,0-8.936,7.096-8.936,15.819c0,8.724,4.009,15.82,8.936,15.82c4.93,0,8.939-7.097,8.939-15.82
				C371.991,38.369,367.982,31.273,363.053,31.273z"/>
		</g>
		<g>
			<rect x="346.43" y="46.289" style="fill:#F4A186;" width="33.249" height="1.607"/>
		</g>
		<g>
			<rect x="348.843" y="37.167" style="fill:#F4A186;" width="28.422" height="1.608"/>
		</g>
		<g>
			<rect x="348.843" y="55.408" style="fill:#F4A186;" width="28.422" height="1.609"/>
		</g>
		<g>
			<rect x="362.249" y="30.468" style="fill:#F4A186;" width="1.609" height="33.248"/>
		</g>
	</g>
</g>
<g>
	<g>
		<path style="fill:#F4A186;" d="M257.533,92.485c-6.156-6.155-16.136-6.155-22.291,0c-6.156,6.155-6.156,16.136,0,22.29
			c6.155,6.157,16.135,6.157,22.291,0C263.689,108.621,263.689,98.641,257.533,92.485z M248.205,110.037
			c-0.005,0-0.012,0.003-0.017,0.003c-0.184,0.026-0.369,0.051-0.556,0.069c-0.198,0.021-0.395,0.036-0.59,0.047
			c-0.22,0.014-0.438,0.018-0.655,0.018c-0.217,0-0.436-0.005-0.655-0.018c-0.196-0.011-0.394-0.026-0.591-0.047
			c-0.187-0.019-0.371-0.043-0.555-0.069c-0.007,0-0.012-0.003-0.017-0.003c-6.342-0.933-11.155-6.393-11.376-6.646
			c-0.136-0.156-0.136-0.387,0-0.543c0.22-0.254,5.031-5.709,11.369-6.645c0.021-0.003,0.044-0.007,0.064-0.009
			c0.17-0.023,0.338-0.047,0.511-0.063c0.199-0.022,0.395-0.038,0.593-0.047c0.22-0.014,0.439-0.019,0.656-0.019
			c0.217,0,0.436,0.005,0.655,0.019c0.196,0.009,0.395,0.024,0.594,0.047c0.171,0.017,0.341,0.04,0.51,0.063
			c0.021,0.002,0.043,0.006,0.064,0.009c6.339,0.936,11.149,6.391,11.369,6.645c0.136,0.156,0.136,0.387,0,0.543
			C259.36,103.645,254.546,109.104,248.205,110.037z"/>
		<path style="fill:#F4A186;" d="M253.129,98.81c0.819,1.274,1.268,2.753,1.268,4.311c0,1.56-0.448,3.038-1.27,4.313
			c2.817-1.547,4.886-3.585,5.575-4.313C258.011,102.393,255.944,100.357,253.129,98.81z"/>
		<path style="fill:#F4A186;" d="M239.648,98.807c-2.817,1.548-4.886,3.586-5.575,4.313c0.691,0.728,2.758,2.763,5.573,4.311
			c-0.821-1.275-1.268-2.751-1.268-4.311C238.379,101.561,238.826,100.081,239.648,98.807z"/>
		<path style="fill:#F4A186;" d="M246.975,109.328c0.052-0.003,0.102-0.009,0.151-0.011c0.146-0.01,0.293-0.021,0.439-0.036
			c0.06-0.006,0.121-0.015,0.182-0.023c0.136-0.017,0.271-0.033,0.409-0.056c0.067-0.01,0.132-0.022,0.199-0.034
			c0.13-0.021,0.261-0.046,0.392-0.071c0.071-0.015,0.142-0.033,0.213-0.046c0.124-0.028,0.25-0.059,0.376-0.09
			c0.074-0.02,0.149-0.038,0.225-0.061c0.121-0.029,0.242-0.067,0.363-0.104c0.077-0.023,0.154-0.044,0.232-0.069
			c0.131-0.043,0.262-0.088,0.393-0.134c0.162-0.058,0.322-0.115,0.482-0.179c0.066-0.025,0.133-0.05,0.201-0.078
			c0.046-0.018,0.092-0.036,0.141-0.056c0.002-0.002,0.004-0.005,0.007-0.007c1.411-1.365,2.188-3.192,2.188-5.155
			c0-1.962-0.776-3.788-2.186-5.153c-0.003-0.003-0.005-0.007-0.009-0.011c-0.521-0.215-1.039-0.393-1.554-0.544
			c-0.073-0.021-0.148-0.043-0.221-0.064c-0.102-0.026-0.208-0.054-0.311-0.081c-0.097-0.023-0.192-0.047-0.287-0.068
			c-0.094-0.021-0.185-0.04-0.279-0.06c-0.109-0.022-0.219-0.043-0.327-0.061c-0.083-0.015-0.167-0.031-0.25-0.044
			c-0.122-0.018-0.243-0.034-0.364-0.049c-0.072-0.01-0.146-0.02-0.219-0.027c-0.139-0.014-0.275-0.024-0.412-0.033
			c-0.059-0.006-0.115-0.011-0.174-0.014c-0.196-0.01-0.392-0.016-0.586-0.016c-0.194,0-0.391,0.006-0.586,0.016
			c-0.056,0.003-0.109,0.008-0.163,0.014c-0.142,0.008-0.284,0.02-0.428,0.033c-0.066,0.008-0.132,0.018-0.196,0.025
			c-0.131,0.016-0.26,0.033-0.391,0.053c-0.074,0.011-0.147,0.025-0.221,0.036c-0.121,0.022-0.243,0.044-0.365,0.069
			c-0.08,0.017-0.159,0.034-0.238,0.051c-0.114,0.025-0.229,0.054-0.344,0.083c-0.085,0.021-0.171,0.044-0.255,0.065
			c-0.107,0.028-0.215,0.061-0.322,0.093c-0.089,0.026-0.18,0.053-0.269,0.082c-0.098,0.031-0.196,0.065-0.293,0.099
			c-0.195,0.067-0.389,0.139-0.579,0.214c-0.065,0.023-0.13,0.048-0.194,0.073c-0.047,0.021-0.094,0.037-0.141,0.055
			c-0.003,0.002-0.004,0.006-0.008,0.01c-1.41,1.365-2.186,3.19-2.186,5.154c0,1.962,0.776,3.787,2.184,5.154
			c0.003,0.001,0.006,0.006,0.01,0.008c0.511,0.213,1.02,0.389,1.525,0.538c0.086,0.026,0.174,0.052,0.262,0.076
			c0.094,0.026,0.189,0.05,0.283,0.071c0.105,0.028,0.213,0.054,0.318,0.077c0.084,0.02,0.168,0.038,0.253,0.056
			c0.118,0.022,0.236,0.046,0.354,0.065c0.076,0.013,0.152,0.027,0.229,0.039c0.128,0.021,0.257,0.036,0.384,0.051
			c0.067,0.009,0.135,0.019,0.203,0.025c0.143,0.015,0.283,0.026,0.424,0.036c0.055,0.002,0.108,0.008,0.164,0.011
			c0.195,0.011,0.392,0.016,0.586,0.016C246.582,109.344,246.778,109.339,246.975,109.328z M243.525,103.12
			c0-1.58,1.282-2.862,2.862-2.862c0.163,0,0.32,0.017,0.475,0.043c-0.162,0.1-0.274,0.275-0.274,0.482
			c0,0.312,0.252,0.563,0.563,0.563c0.311,0,0.563-0.252,0.563-0.563c0-0.077-0.015-0.151-0.044-0.219
			c0.936,0.472,1.581,1.438,1.581,2.557c0,1.58-1.282,2.862-2.862,2.862C244.808,105.982,243.525,104.7,243.525,103.12z"/>
		<path style="fill:#F4A186;" d="M247.15,103.12c0.422,0,0.763-0.343,0.763-0.764s-0.341-0.763-0.763-0.763
			c-0.423,0-0.763,0.342-0.763,0.763S246.727,103.12,247.15,103.12z"/>
	</g>
</g>
<g>
	<g>
		<path style="fill:#F4A186;" d="M55.755,174.439c-0.164-0.397-0.551-0.656-0.982-0.656h-3.358v-8.586
			c0-0.586-0.477-1.063-1.063-1.063h-8.855c-0.586,0-1.061,0.477-1.061,1.063v8.586h-3.359c-0.43,0-0.818,0.259-0.981,0.656
			c-0.165,0.396-0.074,0.854,0.229,1.159l8.85,8.847c0.207,0.207,0.479,0.311,0.75,0.311s0.545-0.104,0.752-0.311l8.848-8.847
			C55.829,175.293,55.919,174.835,55.755,174.439z"/>
		<g>
			<rect x="35.507" y="186.486" style="fill:#F4A186;" width="20.838" height="1.182"/>
			<rect x="55.163" y="185.384" style="fill:#F4A186;" width="1.182" height="2.283"/>
			<rect x="35.507" y="185.384" style="fill:#F4A186;" width="1.18" height="2.283"/>
		</g>
	</g>
</g>
<g>
	<g>
		<path style="fill:#FFFFFF;" d="M350.752,309.427V140.229c0-3.139-2.543-5.682-5.683-5.682H107.357
			c-3.141,0-5.684,2.543-5.684,5.682v169.198H350.752z"/>
		<path style="fill:#DADADA;" d="M65.223,300.978c4.705,15.632,15.907,26.638,28.992,26.638h263.996
			c13.086,0,24.289-11.006,28.992-26.638H65.223z"/>
		<rect x="115.619" y="153.273" style="fill:#68C3C6;" width="221.189" height="137.427"/>
		<path style="fill:#68C3C6;" d="M229.684,142.934c0,1.916-1.554,3.471-3.47,3.471c-1.917,0-3.472-1.555-3.472-3.471
			s1.555-3.47,3.472-3.47C228.13,139.464,229.684,141.018,229.684,142.934z"/>
	</g>
</g>
<g>
	<g>
		<path style="fill:#706F6F;" d="M129.061,130.399V99.386c0-16.502,13.375-29.875,29.87-29.875h7.475
			c16.505,0,29.877,13.373,29.877,29.875l-0.079,31.013h23.375v-30.002c0-27.932-22.648-50.577-50.586-50.577h-12.648
			c-27.93,0-50.578,22.646-50.578,50.577v30.002H129.061z"/>
		<g>
			<path style="fill:#454444;" d="M129.054,130.399V99.386c0-11.9,6.983-22.146,17.049-26.949
				c-14.231,2.276-20.451,14.585-20.451,29.462v28.5H129.054z"/>
			<path style="fill:#9B9B9A;" d="M162.939,52.766c27.941,0,50.582,22.647,50.582,50.587v27.046h6.057v-30.002
				c0-27.932-22.648-50.577-50.586-50.577h-12.648c-6.995,0-13.65,1.418-19.711,3.984c3.306-0.678,6.723-1.038,10.232-1.038H162.939
				z"/>
		</g>
	</g>
	<path style="fill:#FDC207;" d="M100.804,130.399c1.247,24.408-36.682,116.888,61.864,116.888
		c98.545,0,60.625-92.479,61.864-116.888H100.804z"/>
	<path style="fill:#FDC207;" d="M100.804,130.399c1.247,24.408-36.682,116.888,61.864,116.888
		c98.545,0,60.625-92.479,61.864-116.888H100.804z"/>
	<path style="fill:#FAB510;" d="M174.313,179.423c0-6.074-5.216-11.007-11.645-11.007c-6.429,0-11.637,4.933-11.637,11.007
		c0,3.599,1.832,7.901,4.653,9.915l-4.154,30.23h22.286l-4.169-30.23C172.473,187.325,174.313,183.022,174.313,179.423z"/>
	<path style="fill:#FFCD00;" d="M111.086,220.73c-13.063-27.641,1.463-67.209,0.684-81.634c0,0,93.629-3.951,93.726-5.494h-100.81
		C105.572,149.1,86.666,195.317,111.086,220.73z"/>
	<path style="fill:#FAB510;" d="M224.532,130.399c0,0-8.331,46.651-9.436,55.452c-1.884,14.951-9.861,29.434-22.912,37.41
		c-16.599,10.146-35.461,11.938-54.416,12.506c-8.428,0.254-16.315-0.021-24.396-1.857c10.355,8.207,26.013,13.377,49.297,13.377
		C261.213,247.287,223.293,154.807,224.532,130.399z"/>
	<g>
		<path style="fill:#1E2828;" d="M172.838,180.533c0,5.617-4.549,10.17-10.17,10.17c-5.617,0-10.166-4.553-10.166-10.17
			c0-5.619,4.549-10.179,10.166-10.179C168.289,170.354,172.838,174.914,172.838,180.533z"/>
		<path style="fill:#1E2828;" d="M172.41,217.63l-4.006-31.896c0-6.229-2.568-5.202-5.736-5.202c-3.164,0-5.736-1.027-5.736,5.202
			l-3.998,31.896H172.41z"/>
	</g>
	<path style="fill:#334041;" d="M172.838,180.533c0-3.551-1.82-6.67-4.564-8.49c1.91,1.846,3.098,4.433,3.098,7.305
		c0,3.328-1.598,6.269-4.068,8.13l3.645,28.978h-17.869l-0.145,1.176h19.477l-3.637-28.975
		C171.244,186.802,172.838,183.861,172.838,180.533z"/>
</g>
<g>
	<path style="fill:#FFFFFF;" d="M277.164,193.932c-22.871,0-41.413,18.541-41.413,41.413c0,22.874,18.542,41.414,41.413,41.414
		c22.873,0,41.415-18.54,41.415-41.414C318.579,212.473,300.037,193.932,277.164,193.932z M261.518,224.587
		c0.286-0.346,0.688-0.537,1.131-0.557c-0.586-1.948-2.281-8.852,1.815-12.914l0.106,0.086c0.105-0.146,0.25-0.174,0.25-0.174
		s6.745-6.667,15.865-3.985c9.121,2.684,11.576-0.637,11.576-0.637s-0.32,2.883-1.943,5.543c2.658,3.467,2.003,8.38,1.4,10.932
		c-0.008,0.383-0.029,0.764-0.06,1.147c0.455,0.013,0.863,0.208,1.156,0.559c0.316,0.381,0.639,1.108,0.395,2.423
		c-0.07,0.384-0.352,0.954-0.647,1.557c-0.195,0.396-0.438,0.889-0.48,1.08c-0.172,0.765-0.406,1.814-1.472,1.903
		c-0.015,0-0.091,0.005-0.105,0.005c-0.286,0-0.539-0.096-0.763-0.268c-1.133,2.572-2.654,4.936-4.313,6.895v6.046
		c0.077,0.021,0.155,0.041,0.231,0.064c0.022,0.006,0.037,0.02,0.056,0.029c-0.075-0.032-0.155-0.059-0.237-0.052
		c-0.018,0-0.033,0.014-0.05,0.018c-0.042,0.006-0.081,0.023-0.12,0.039c-0.127,0.051-0.24,0.131-0.299,0.26l-0.038,0.083
		l-0.089,0.193l-0.268,0.586l-0.277,0.602l-1.216,2.649l-0.251,0.545l-0.25,0.545l-0.274,0.597
		c-0.103,0.125-0.244,0.211-0.407,0.211c-0.029,0-0.061-0.002-0.091-0.007l-3.165-0.537c-0.026,0.375-0.088,0.721-0.11,0.799
		c-0.036,0.126-0.335,0.305-0.599,0.425l0.826,6.838l-1.637,3.563l-1.627-3.548l0.826-6.852c-0.263-0.12-0.563-0.299-0.6-0.425
		c-0.023-0.078-0.083-0.424-0.109-0.799l-3.17,0.537c-0.031,0.005-0.062,0.007-0.091,0.007c-0.164,0-0.308-0.087-0.411-0.213
		l-0.273-0.595l-0.249-0.545l-0.251-0.545l-1.215-2.647l-0.277-0.605l-0.268-0.584l-0.09-0.195l-0.039-0.083
		c-0.059-0.129-0.172-0.209-0.298-0.26c-0.038-0.016-0.077-0.033-0.118-0.039c-0.02-0.004-0.033-0.018-0.053-0.018
		c-0.082-0.008-0.162,0.018-0.238,0.052c0.02-0.009,0.035-0.023,0.055-0.029c0.078-0.023,0.157-0.043,0.236-0.064v-5.938
		c-1.666-1.977-3.198-4.374-4.334-6.984c-0.219,0.161-0.467,0.249-0.744,0.249c-0.016,0-0.09-0.005-0.105-0.005
		c-1.061-0.089-1.289-1.097-1.472-1.903c-0.044-0.191-0.286-0.684-0.479-1.08c-0.295-0.603-0.576-1.173-0.647-1.557
		C260.878,225.695,261.203,224.967,261.518,224.587z M269.449,247.479l0.545,1.188l0.015,0.032l0.251,0.545l0.25,0.545l0.57,1.246
		l-5.164-0.18l2.851-4.863l0.138,0.299L269.449,247.479z M274.248,257.938l1.038,2.262l0.655,1.429l-0.772-0.456l-4.63-2.739
		l1.078-6.229L274.248,257.938z M278.388,261.629l0.663-1.443l3.662-7.98l0,0l1.078,6.229l-4.623,2.733L278.388,261.629
		L278.388,261.629z M283.25,251.036l0.57-1.246l0.252-0.545l0.25-0.545l0.016-0.035l0.545-1.188l0.546-1.186l0.136-0.299
		l2.852,4.863L283.25,251.036L283.25,251.036z M277.164,264.284c-12.754,0-23.094-3.384-23.094-7.558
		c0-3.111,5.76-8.894,13.97-11.648l-3.528,6.018c-0.096,0.166-0.1,0.37-0.006,0.539c0.092,0.168,0.266,0.274,0.459,0.281
		l5.563,0.191l-1.127,6.513c-0.038,0.221,0.066,0.445,0.261,0.563l5.364,3.172l1.861,1.102c0.012,0.006,0.023,0.002,0.034,0.009
		c0.077,0.038,0.157,0.066,0.243,0.066l0,0l0,0c0.002,0,0.002,0,0.002,0l0,0c0.085,0,0.166-0.028,0.242-0.066
		c0.011-0.007,0.023-0.003,0.034-0.009l1.87-1.105l5.356-3.168c0.196-0.117,0.299-0.342,0.261-0.563l-1.127-6.513l5.564-0.191
		c0.191-0.007,0.365-0.113,0.459-0.281c0.092-0.169,0.09-0.373-0.008-0.539l-3.525-6.018c8.207,2.755,13.969,8.537,13.969,11.648
		C300.262,260.9,289.92,264.284,277.164,264.284z"/>
	<path style="fill:#FFFFFF;" d="M264.112,230.184c-0.624-1.636-1.083-3.341-1.321-5.065c-0.003,0-0.01-0.004-0.014-0.004
		c-0.004,0-0.008,0-0.012,0c-0.199,0-0.316,0.057-0.41,0.17c-0.109,0.132-0.344,0.543-0.16,1.524
		c0.043,0.239,0.326,0.814,0.553,1.276c0.264,0.539,0.492,1.002,0.565,1.319c0.234,1.036,0.369,1.048,0.5,1.06l0.014,0.533v-0.533
		C263.897,230.464,264,230.378,264.112,230.184z"/>
	<path style="fill:#FFFFFF;" d="M290.518,230.464c0.133-0.014,0.268-0.023,0.502-1.06c0.071-0.317,0.3-0.78,0.564-1.319
		c0.227-0.463,0.509-1.037,0.554-1.276c0.184-0.981-0.053-1.395-0.162-1.524c-0.096-0.115-0.216-0.173-0.368-0.173
		c-0.019,0.003-0.048,0.015-0.071,0.02c-0.242,1.714-0.702,3.407-1.33,5.034c0.117,0.209,0.227,0.299,0.3,0.299v0.533
		L290.518,230.464z"/>
	<path style="fill:#FFFFFF;" d="M269.994,239.499v4.845l7.172,4.266l7.172-4.268v-4.954c-2.519,2.62-5.217,4.26-7.276,4.26
		C275.06,243.648,272.447,242.054,269.994,239.499z"/>
	<path style="fill:#FFFFFF;" d="M289.614,224.111c-0.075-5.167-1.446-7.72-2.525-8.93c-1.256,0.725-2.792,1.187-4.716,1.136
		c-7.682-0.2-12.684,0.646-15.416-1.112c-1.072,1.21-2.42,3.733-2.51,8.811c0.443-0.011,0.938,0.066,1.459,0.314
		c0.082,0.041,0.145,0.093,0.221,0.137c0.19-0.589,0.451-1.137,0.779-1.62c0.452,0,0.76-0.588,4.4,0.217
		c3.641,0.803,3.985,1.266,4.29,1.585c0.171,0.594,0.268,1.23,0.272,1.893c0.377-0.141,0.803-0.24,1.295-0.242
		c0.495,0.002,0.92,0.102,1.299,0.242c0.004-0.662,0.101-1.299,0.273-1.893c0.303-0.319,0.647-0.782,4.289-1.585
		c3.641-0.805,3.947-0.217,4.4-0.217c0.26,0.383,0.467,0.815,0.643,1.27C288.656,223.958,289.188,223.992,289.614,224.111z"/>
	<path style="fill:#FFFFFF;" d="M289.719,228.172c0.207-0.665,0.385-1.335,0.525-2.015c0.068-0.328,0.109-0.66,0.162-0.99
		l-0.002,0.002l-0.805,0.575c0.004-0.151,0-0.285,0.003-0.435c-0.032,0.009-0.069,0.017-0.105,0.025
		c-0.318,0.077-0.674,0.172-1.029,0.322c0.041,0.302,0.068,0.608,0.068,0.924c0,1.719-2.254,3.613-5.039,3.613
		c-2.162,0-4.002-0.198-4.715-1.831c-0.478-0.105-1.03-0.217-1.619-0.193c-0.586-0.023-1.141,0.089-1.614,0.193
		c-0.715,1.633-2.554,1.831-4.718,1.831c-2.783,0-5.039-1.895-5.039-3.613c0-0.148,0.023-0.292,0.031-0.439
		c-0.191-0.131-0.398-0.254-0.625-0.352c-0.025-0.015-0.053-0.023-0.079-0.037c-0.218-0.11-0.44-0.195-0.659-0.264
		c0.003,0.087,0,0.164,0.003,0.254l-0.017-0.011l-0.506-0.361c0.039,0.248,0.07,0.499,0.119,0.749
		c0.143,0.736,0.32,1.465,0.539,2.181c0.11,0.362,0.242,0.714,0.369,1.068c0.105,0.288,0.204,0.578,0.318,0.859
		c0.939,2.332,2.213,4.478,3.617,6.305c0.177,0.232,0.361,0.45,0.545,0.674c0.182,0.219,0.361,0.445,0.545,0.656
		c2.529,2.883,5.266,4.693,7.067,4.693c1.863,0,4.686-1.917,7.276-4.907c0.185-0.213,0.363-0.445,0.545-0.669
		c0.182-0.224,0.367-0.438,0.546-0.673c1.385-1.816,2.639-3.929,3.573-6.188c0.119-0.285,0.225-0.576,0.331-0.866
		C289.467,228.894,289.603,228.537,289.719,228.172z"/>
	<polygon style="fill:#FFFFFF;" points="279.147,248.7 278.721,248.955 278.721,248.955 280.439,249.245 281.647,249.45 
		281.76,249.245 282.057,248.7 283.459,246.135 	"/>
	<path style="fill:none;stroke:#32211D;stroke-width:0;stroke-linecap:round;stroke-linejoin:round;" d="M284.821,244.128
		c-0.07,0.004-0.141,0.013-0.205,0.051"/>
	<polygon style="fill:#FFFFFF;" points="275.182,248.7 270.873,246.135 272.275,248.7 272.573,249.245 272.685,249.45 
		273.897,249.245 275.611,248.955 	"/>
	<path style="fill:none;stroke:#32211D;stroke-width:0;stroke-linecap:round;stroke-linejoin:round;" d="M269.717,244.178
		c-0.064-0.038-0.135-0.047-0.207-0.051"/>
	
		<line style="fill:none;stroke:#FFFFFF;stroke-width:0;stroke-linecap:round;stroke-linejoin:round;" x1="275.941" y1="261.629" x2="275.286" y2="260.2"/>
</g>
<g>
	<g>
		<path style="fill:#9D9D9C;" d="M368.648,162.039c-0.261,1.729-1.876,2.918-3.607,2.658l-75.159-11.392
			c-1.731-0.263-2.922-1.876-2.658-3.605l8.931-58.934c0.263-1.73,1.876-2.921,3.606-2.658l75.16,11.39
			c1.73,0.262,2.921,1.875,2.659,3.606L368.648,162.039z"/>
		<path style="fill:#9D9D9C;" d="M329.232,96.222l1.041-6.871c0.26-1.729-0.928-3.345-2.656-3.606l-26.882-4.073
			c-1.728-0.263-3.342,0.929-3.606,2.658l-1.041,6.871L329.232,96.222z"/>
		<path style="fill:#818080;" d="M298.874,88.101c-1.366,0.18-2.506,1.236-2.72,2.666l-8.931,58.934
			c-0.221,1.453,0.588,2.823,1.878,3.38c-0.026-0.265-0.026-0.537,0.016-0.813L298.874,88.101z"/>
		<path style="fill:#818080;" d="M299.022,86.897c0.263-1.729,1.878-2.92,3.608-2.657l26.881,4.073
			c0.274,0.043,0.533,0.12,0.777,0.226c-0.147-1.396-1.217-2.573-2.671-2.794l-26.882-4.073c-1.728-0.263-3.342,0.929-3.606,2.658
			l-1.041,6.871l2.232,0.338L299.022,86.897z"/>
		<path style="fill:#FDC61C;" d="M368.648,162.039c-0.261,1.729-1.876,2.918-3.607,2.658l-75.159-11.392
			c-1.731-0.263-2.922-1.876-2.658-3.605l17.744-50.124c0.262-1.729,1.875-2.919,3.605-2.656l75.162,11.388
			c1.729,0.262,2.918,1.877,2.657,3.608L368.648,162.039z"/>
		<path style="fill:#C2C1BF;" d="M368.648,162.039c-0.261,1.729-1.876,2.918-3.607,2.658l-75.159-11.392
			c-1.731-0.263-2.922-1.876-2.658-3.605l17.744-50.124c0.262-1.729,1.875-2.919,3.605-2.656l75.162,11.388
			c1.729,0.262,2.918,1.877,2.657,3.608L368.648,162.039z"/>
		<path style="fill:#EDEDED;" d="M381.195,109.879l-72.599-11.003c-1.168-0.177,70.765,12.193,70.765,12.193
			c1.669,0.254,2.821,1.813,2.567,3.484c0,0-15.502,48.514-15.308,47.221l17.143-48.413
			C384.015,111.693,382.866,110.13,381.195,109.879z"/>
	</g>
</g>
<g>
	<path style="fill:#F4A186;" d="M235.892,36.866c0.172,0.693-0.252,1.395-0.945,1.567l-6.123,1.52
		c-0.693,0.172-1.395-0.252-1.566-0.944l-1.006-4.053c-0.172-0.693,0.251-1.395,0.943-1.566l6.124-1.52
		c0.692-0.172,1.395,0.25,1.567,0.943L235.892,36.866z"/>
	<path style="fill:#F4A186;" d="M246.45,34.246c0.172,0.693-0.25,1.395-0.943,1.567l-6.123,1.52
		c-0.693,0.172-1.396-0.251-1.567-0.944l-1.006-4.052c-0.172-0.693,0.251-1.395,0.944-1.566l6.123-1.52
		c0.693-0.172,1.395,0.25,1.566,0.943L246.45,34.246z"/>
	<path style="fill:#F4A186;" d="M257.009,31.625c0.172,0.693-0.25,1.395-0.942,1.567l-6.124,1.519
		c-0.693,0.172-1.395-0.251-1.566-0.944l-1.006-4.053c-0.172-0.693,0.25-1.394,0.943-1.566l6.124-1.52
		c0.692-0.172,1.393,0.251,1.565,0.944L257.009,31.625z"/>
	<path style="fill:#F4A186;" d="M238.024,45.46c0.172,0.693-0.252,1.395-0.945,1.567l-6.123,1.519
		c-0.693,0.172-1.395-0.25-1.566-0.944l-1.006-4.052c-0.172-0.694,0.25-1.394,0.943-1.566l6.124-1.52
		c0.692-0.172,1.395,0.25,1.567,0.943L238.024,45.46z"/>
	<path style="fill:#F4A186;" d="M248.583,42.84c0.172,0.693-0.251,1.395-0.943,1.566l-6.123,1.52
		c-0.694,0.172-1.396-0.25-1.568-0.944l-1.005-4.052c-0.172-0.694,0.251-1.394,0.944-1.566l6.123-1.52
		c0.693-0.172,1.395,0.25,1.566,0.943L248.583,42.84z"/>
	<path style="fill:#F4A186;" d="M259.142,40.22c0.172,0.693-0.25,1.395-0.943,1.566l-6.123,1.519
		c-0.693,0.172-1.395-0.25-1.566-0.944l-1.006-4.052c-0.172-0.693,0.25-1.394,0.943-1.566l6.124-1.52
		c0.692-0.172,1.394,0.25,1.565,0.944L259.142,40.22z"/>
	<path style="fill:#F4A186;" d="M240.157,54.054c0.172,0.693-0.252,1.395-0.945,1.566l-6.123,1.52
		c-0.693,0.172-1.395-0.25-1.566-0.943l-1.006-4.052c-0.172-0.693,0.25-1.395,0.943-1.566l6.123-1.52
		c0.693-0.172,1.397,0.25,1.568,0.943L240.157,54.054z"/>
	<path style="fill:#F4A186;" d="M250.716,51.434c0.172,0.693-0.252,1.394-0.944,1.566l-6.122,1.519
		c-0.694,0.172-1.396-0.25-1.568-0.943l-1.005-4.052c-0.173-0.693,0.251-1.394,0.944-1.566l6.123-1.52
		c0.692-0.172,1.395,0.25,1.567,0.944L250.716,51.434z"/>
	<path style="fill:#F4A186;" d="M261.274,48.814c0.172,0.693-0.25,1.394-0.943,1.566l-6.123,1.519
		c-0.694,0.172-1.394-0.25-1.566-0.943l-1.006-4.052c-0.172-0.693,0.25-1.394,0.943-1.566l6.124-1.519
		c0.692-0.172,1.394,0.25,1.565,0.944L261.274,48.814z"/>
	<path style="fill:#EF7C55;stroke:#F4A186;stroke-width:2;stroke-linecap:round;stroke-linejoin:round;stroke-miterlimit:10;" d="
		M274.677,39.029c-4.496-1.828-6.265,2.293-6.997,5.915c-0.732,3.621-0.749,4.127-3.472,0.724c-0.385-0.481-0.773-0.999-1.173-1.547
		l0.048-0.034l-9.282-13.041c-0.747-1.051-2.07-1.39-2.956-0.76l-0.801,0.571c-0.888,0.63-1,1.992-0.251,3.042l1.847,2.595l0,0
		c0.002,0.003,0.004,0.005,0.006,0.008l0.595,0.834c1.743,2.49,4.13,6.182,3.807,5.849c-0.564-0.578-2.804-1.614-4.317,0.065
		c-1.512,1.679,0.707,4.162,0.234,3.816c-0.472-0.345-2.631-0.837-3.546,1.622c-0.802,2.163,2.624,4.906,1.071,4.201
		c-1.556-0.705-2.479-0.047-3.246,1.622c-0.768,1.671,2.592,5.052,4.813,7.042c1.707,1.531,11.055,7.647,11.055,7.647l12.182-8.536
		c-1.203-4.551-0.773-9.871-0.643-12.657C273.959,41.418,276.821,39.901,274.677,39.029z"/>
</g>
<g>
	<path style="fill:#F4A186;" d="M116.073,22.632c-3.002,5.713-0.805,12.778,4.908,15.78c5.713,3.002,12.779,0.804,15.781-4.908
		c3-5.714,0.803-12.778-4.91-15.78C126.14,14.722,119.076,16.919,116.073,22.632z M130.48,20.335
		c4.271,2.245,5.914,7.525,3.67,11.795c-2.243,4.271-7.524,5.914-11.795,3.67c-4.271-2.245-5.914-7.526-3.67-11.796
		C120.929,19.733,126.21,18.091,130.48,20.335z"/>
	<path style="fill:#F4A186;" d="M119.444,35.95l-13.221,8.152c-1.433,0.885-3.311,0.439-4.193-0.994
		c-0.885-1.433-0.439-3.31,0.993-4.194l13.22-8.152L119.444,35.95z"/>
	<path style="fill:#F4A186;" d="M132.741,25.092c-2.036-3.303-6.762-4.085-10.553-1.747c-0.268,0.164-0.521,0.344-0.764,0.53
		c0.506-0.945,1.255-1.777,2.234-2.38c2.955-1.823,6.828-0.904,8.65,2.051c0.473,0.766,0.757,1.593,0.873,2.43
		C133.058,25.673,132.917,25.377,132.741,25.092z"/>
</g>
<g>
	<g>
		
			<rect x="359.538" y="215.215" transform="matrix(0.9429 -0.3332 0.3332 0.9429 -53.6672 139.0356)" style="fill:#EF7C55;stroke:#F4A186;stroke-width:2;stroke-linecap:round;stroke-linejoin:round;stroke-miterlimit:10;" width="38.004" height="21.551"/>
		
			<rect x="354.443" y="207.06" transform="matrix(0.9429 -0.3332 0.3332 0.9429 -49.1555 136.5167)" style="fill:#EF7C55;stroke:#F4A186;stroke-width:2;stroke-linecap:round;stroke-linejoin:round;stroke-miterlimit:10;" width="38.005" height="9.028"/>
		
			<rect x="357.319" y="209.006" transform="matrix(0.9428 -0.3332 0.3332 0.9428 -49.1581 136.5307)" style="fill:#F4A186;" width="32.252" height="5.138"/>
		<g>
			
				<rect x="359.606" y="219.441" transform="matrix(0.9429 -0.3332 0.3332 0.9429 -51.8552 138.0359)" style="fill:#F4A186;" width="33.768" height="1.502"/>
			
				<rect x="360.974" y="223.307" transform="matrix(0.9429 -0.3332 0.3332 0.9429 -53.0606 138.6896)" style="fill:#F4A186;" width="33.767" height="1.501"/>
			
				<rect x="362.339" y="227.173" transform="matrix(0.9428 -0.3332 0.3332 0.9428 -54.2763 139.3939)" style="fill:#F4A186;" width="33.768" height="1.502"/>
			
				<rect x="363.704" y="231.038" transform="matrix(0.9428 -0.3332 0.3332 0.9428 -55.4863 140.0698)" style="fill:#F4A186;" width="33.768" height="1.502"/>
		</g>
	</g>
	<path style="fill:#EF7C55;stroke:#F4A186;stroke-width:2;stroke-linecap:round;stroke-linejoin:round;stroke-miterlimit:10;" d="
		M405.295,225.6c1.572,4.449-0.761,9.333-5.211,10.905c-4.451,1.574-9.333-0.76-10.906-5.209c-1.573-4.451,0.759-9.334,5.21-10.906
		C398.839,218.817,403.723,221.149,405.295,225.6z"/>
	<g>
		<g>
			<path style="fill:#F4A186;" d="M395.157,229.366l-1.066-3.017c-0.371-1.049,0.178-2.201,1.227-2.571l0.477-0.168
				c1.049-0.372,2.202,0.179,2.572,1.229l1.066,3.017l0.945-0.334l-1.072-3.031c-0.533-1.514-2.195-2.307-3.709-1.771l-0.686,0.242
				c-1.514,0.535-2.307,2.194-1.772,3.71l1.072,3.029L395.157,229.366z"/>
			<path style="fill:#F4A186;" d="M400.29,226.472l-6.67,2.356c-0.365,0.13-0.555,0.527-0.427,0.892l1.611,4.556
				c0.128,0.365,0.526,0.556,0.891,0.428l6.67-2.357c0.364-0.128,0.556-0.529,0.428-0.893l-1.61-4.558
				C401.054,226.534,400.654,226.344,400.29,226.472z M395.544,234.285c-0.104,0.036-0.219-0.02-0.256-0.123
				c-0.036-0.104,0.019-0.219,0.123-0.257c0.105-0.037,0.219,0.019,0.256,0.123C395.702,234.132,395.649,234.247,395.544,234.285z
				 M393.899,229.628c-0.105,0.038-0.22-0.017-0.256-0.121c-0.036-0.105,0.018-0.219,0.121-0.257
				c0.108-0.037,0.22,0.018,0.257,0.123C394.06,229.478,394.006,229.591,393.899,229.628z M398.665,230.862l0.353,1.001
				c0.101,0.281-0.046,0.593-0.329,0.693c-0.283,0.099-0.596-0.05-0.693-0.332l-0.354-1c-0.297-0.079-0.552-0.3-0.661-0.61
				c-0.18-0.503,0.086-1.055,0.588-1.23c0.5-0.178,1.053,0.085,1.23,0.588C398.908,230.282,398.85,230.612,398.665,230.862z
				 M402.22,231.925c-0.105,0.036-0.219-0.018-0.255-0.123c-0.038-0.105,0.017-0.219,0.12-0.257c0.104-0.036,0.221,0.02,0.256,0.123
				C402.379,231.773,402.323,231.888,402.22,231.925z M400.575,227.27c-0.105,0.037-0.219-0.018-0.256-0.122
				c-0.037-0.105,0.018-0.219,0.123-0.256c0.102-0.036,0.219,0.017,0.254,0.123C400.733,227.119,400.679,227.234,400.575,227.27z"/>
		</g>
	</g>
</g>
</svg>
