<?xml version="1.0" encoding="utf-8"?>
<!-- Generator: Adobe Illustrator 27.5.0, SVG Export Plug-In . SVG Version: 6.00 Build 0)  -->
<svg version="1.1" id="Layer_1" xmlns="http://www.w3.org/2000/svg" xmlns:xlink="http://www.w3.org/1999/xlink" x="0px" y="0px"
	 viewBox="0 0 6000 4000" style="enable-background:new 0 0 6000 4000;" xml:space="preserve">
<rect style="fill:#FFFFFF;" width="6000" height="4000"/>
<g>
	<rect style="fill:#D6F9FB;" width="6000" height="4000"/>
	<path style="fill:#B1E5E5;" d="M1517.423,2172.346h-83.561c-5.993-36.03-20.162-69.293-40.537-97.828l59.098-59.098
		c3.834-3.834,3.834-10.097,0-13.931l-41.202-41.202c-3.825-3.834-10.097-3.834-13.931,0l-59.098,59.098
		c-28.535-20.367-61.798-34.544-97.828-40.545v-83.552c0-5.418-4.433-9.851-9.851-9.851h-58.26c-5.418,0-9.851,4.433-9.851,9.851
		v83.561c-36.03,6.001-69.293,20.17-97.828,40.537l-59.098-59.098c-3.834-3.834-10.097-3.834-13.931,0l-41.202,41.202
		c-3.834,3.834-3.834,10.097,0,13.931l59.098,59.098c-20.367,28.535-34.536,61.798-40.537,97.828h-83.561
		c-5.418,0-9.851,4.433-9.851,9.851v58.26c0,5.418,4.433,9.851,9.851,9.851h83.552c6.001,36.03,20.178,69.293,40.545,97.828l0,0
		l-59.098,59.097c-3.834,3.834-3.834,10.105,0,13.931l41.202,41.201c3.834,3.834,10.097,3.834,13.931,0l59.098-59.097
		c28.535,20.375,61.798,34.544,97.828,40.537v83.561c0,5.418,4.433,9.851,9.851,9.851h58.26c5.418,0,9.851-4.433,9.851-9.851
		v-83.552c36.03-6.001,69.293-20.17,97.828-40.545l59.098,59.097c3.834,3.834,10.105,3.834,13.931,0l41.202-41.201
		c3.834-3.826,3.834-10.097,0-13.931l-59.098-59.097c20.375-28.535,34.544-61.798,40.545-97.828h83.553
		c5.418,0,9.851-4.433,9.851-9.851v-58.26C1527.274,2176.779,1522.841,2172.346,1517.423,2172.346z M1339.777,2294.589
		c-13.602,22.567-32.566,41.53-55.133,55.133c-13.586,8.193-28.469,14.44-44.28,18.355c-12.486,3.095-25.539,4.737-38.977,4.737
		c-13.438,0-26.499-1.642-38.985-4.737c-15.811-3.916-30.694-10.163-44.28-18.355c-22.567-13.603-41.53-32.566-55.133-55.133
		c-8.193-13.586-14.44-28.469-18.355-44.28c-3.095-12.486-4.737-25.539-4.737-38.977c0-13.438,1.642-26.499,4.737-38.985
		c3.916-15.811,10.163-30.694,18.355-44.28c13.603-22.567,32.566-41.53,55.133-55.133c13.586-8.193,28.469-14.44,44.28-18.356
		c12.486-3.095,25.547-4.737,38.985-4.737c13.438,0,26.491,1.642,38.977,4.737c15.811,3.916,30.694,10.163,44.28,18.356
		c22.567,13.603,41.53,32.566,55.133,55.133c8.193,13.586,14.44,28.469,18.356,44.28c3.095,12.486,4.737,25.547,4.737,38.985
		c0,13.438-1.642,26.491-4.737,38.977C1354.217,2266.119,1347.97,2281.002,1339.777,2294.589z"/>
	<path style="fill:#B1E5E5;" d="M2387.1,1660.056h-129.775c-9.307-55.957-31.312-107.616-62.956-151.933l91.782-91.782
		c5.954-5.954,5.954-15.682,0-21.635l-63.989-63.989c-5.941-5.954-15.682-5.954-21.635,0l-91.782,91.782
		c-44.317-31.631-95.977-53.649-151.933-62.969v-129.762c0-8.414-6.885-15.299-15.299-15.299h-90.481
		c-8.415,0-15.299,6.885-15.299,15.299v129.775c-55.957,9.32-107.617,31.325-151.933,62.956l-91.782-91.782
		c-5.954-5.954-15.681-5.954-21.635,0l-63.988,63.989c-5.954,5.954-5.954,15.682,0,21.635l91.782,91.782
		c-31.631,44.317-53.636,95.976-62.956,151.933h-129.775c-8.415,0-15.299,6.885-15.299,15.299v90.481
		c0,8.415,6.885,15.299,15.299,15.299h129.762c9.32,55.956,31.338,107.616,62.969,151.933l0,0l-91.782,91.782
		c-5.954,5.954-5.954,15.694,0,21.636l63.988,63.989c5.954,5.954,15.682,5.954,21.635,0l91.782-91.782
		c44.316,31.644,95.976,53.649,151.933,62.956v129.775c0,8.415,6.885,15.299,15.299,15.299h90.481
		c8.414,0,15.299-6.885,15.299-15.299v-129.762c55.956-9.32,107.616-31.325,151.933-62.969l91.782,91.782
		c5.954,5.954,15.694,5.954,21.635,0l63.989-63.989c5.954-5.941,5.954-15.682,0-21.636l-91.782-91.782
		c31.644-44.317,53.649-95.976,62.969-151.933H2387.1c8.414,0,15.299-6.885,15.299-15.299v-90.481
		C2402.399,1666.941,2395.514,1660.056,2387.1,1660.056z M2111.206,1849.905c-21.125,35.048-50.576,64.499-85.624,85.624
		c-21.1,12.724-44.214,22.426-68.769,28.507c-19.392,4.807-39.663,7.356-60.534,7.356c-20.871,0-41.155-2.55-60.546-7.356
		c-24.555-6.082-47.67-15.784-68.769-28.507c-35.048-21.125-64.499-50.576-85.624-85.624c-12.724-21.1-22.426-44.214-28.507-68.77
		c-4.806-19.392-7.356-39.663-7.356-60.534c0-20.87,2.55-41.154,7.356-60.546c6.081-24.555,15.783-47.67,28.507-68.77
		c21.126-35.048,50.576-64.498,85.624-85.624c21.1-12.724,44.214-22.426,68.769-28.507c19.392-4.806,39.675-7.356,60.546-7.356
		c20.87,0,41.142,2.55,60.534,7.356c24.555,6.081,47.669,15.784,68.769,28.507c35.048,21.126,64.499,50.576,85.624,85.624
		c12.724,21.1,22.426,44.214,28.507,68.77c4.807,19.392,7.356,39.676,7.356,60.546c0,20.871-2.55,41.142-7.356,60.534
		C2133.632,1805.691,2123.93,1828.805,2111.206,1849.905z"/>
	<g>
		<g>
			<path style="fill:#30366D;" d="M3890.927,3475.796h-1704.08c-32.017,0-58.213-26.196-58.213-58.213V954.973
				c0-32.017,26.196-58.213,58.213-58.213h1704.08c32.017,0,58.213,26.196,58.213,58.213v2462.61
				C3949.14,3449.6,3922.944,3475.796,3890.927,3475.796z"/>
			<path style="fill:#FFFFFF;" d="M3831.444,3245.161H2246.329c-2.072,0-3.767-1.695-3.767-3.767V992.687
				c0-2.072,1.695-3.767,3.767-3.767h1585.115c2.072,0,3.768,1.695,3.768,3.767v2248.707
				C3835.212,3243.466,3833.517,3245.161,3831.444,3245.161z"/>
			<path style="fill:none;stroke:#232323;stroke-width:18.5107;stroke-miterlimit:10;" d="M3615.333,2211.327h-171.662
				c-6.6,0-12-5.4-12-12v-171.662c0-6.6,5.4-12,12-12h171.662c6.6,0,12,5.4,12,12v171.662
				C3627.333,2205.927,3621.933,2211.327,3615.333,2211.327z"/>
			<path style="fill:none;stroke:#232323;stroke-width:18.5107;stroke-miterlimit:10;" d="M3615.333,1847.904h-171.662
				c-6.6,0-12-5.4-12-12v-171.662c0-6.6,5.4-12,12-12h171.662c6.6,0,12,5.4,12,12v171.662
				C3627.333,1842.504,3621.933,1847.904,3615.333,1847.904z"/>
			<path style="fill:none;stroke:#232323;stroke-width:18.5107;stroke-miterlimit:10;" d="M3615.333,1484.48h-171.662
				c-6.6,0-12-5.4-12-12v-171.662c0-6.6,5.4-12,12-12h171.662c6.6,0,12,5.4,12,12v171.662
				C3627.333,1479.08,3621.933,1484.48,3615.333,1484.48z"/>
			<g>
				<g>
					<circle style="fill:#4952CE;" cx="3038.887" cy="832.957" r="104.211"/>
					<path style="fill:#4952CE;" d="M3373.546,1058.394h-669.318c-10.111,0-18.383-8.272-18.383-18.383V851.34
						c0-10.111,8.272-18.383,18.383-18.383h669.318c10.111,0,18.383,8.272,18.383,18.383v188.67
						C3391.929,1050.121,3383.656,1058.394,3373.546,1058.394z"/>
				</g>
			</g>
		</g>
		<path style="fill:#6B79F2;" d="M3348.554,903.428h-170.036c-6.073,0-11.041-4.968-11.041-11.041v-23.289
			c0-6.072,4.968-11.041,11.041-11.041h170.036c6.072,0,11.041,4.968,11.041,11.041v23.289
			C3359.594,898.459,3354.626,903.428,3348.554,903.428z"/>
		<path style="fill:#323DA5;" d="M3112.483,1034.291h-386.965c-6.072,0-11.041-4.968-11.041-11.041V999.96
			c0-6.072,4.969-11.041,11.041-11.041h386.965c6.072,0,11.041,4.968,11.041,11.041v23.289
			C3123.524,1029.322,3118.556,1034.291,3112.483,1034.291z"/>
		
			<polyline style="fill:none;stroke:#FF5050;stroke-width:18.5107;stroke-linecap:round;stroke-linejoin:round;stroke-miterlimit:10;" points="
			3474.341,2062.631 3529.502,2171.45 3589.54,2062.631 		"/>
		
			<polyline style="fill:none;stroke:#FF5050;stroke-width:18.5107;stroke-linecap:round;stroke-linejoin:round;stroke-miterlimit:10;" points="
			3474.341,1695.663 3529.502,1804.483 3589.54,1695.663 		"/>
		
			<polyline style="fill:none;stroke:#FF5050;stroke-width:18.5107;stroke-linecap:round;stroke-linejoin:round;stroke-miterlimit:10;" points="
			3474.341,1330.619 3529.502,1439.438 3589.54,1330.619 		"/>
		
			<line style="fill:none;stroke:#232323;stroke-width:16.6596;stroke-linecap:round;stroke-linejoin:round;stroke-miterlimit:10;" x1="2416.633" y1="2151.778" x2="3048.28" y2="2151.778"/>
		
			<line style="fill:none;stroke:#232323;stroke-width:16.6596;stroke-linecap:round;stroke-linejoin:round;stroke-miterlimit:10;" x1="2629.309" y1="2467.305" x2="3112.89" y2="2467.305"/>
		
			<line style="fill:none;stroke:#232323;stroke-width:16.6596;stroke-linecap:round;stroke-linejoin:round;stroke-miterlimit:10;" x1="2640.651" y1="2746.998" x2="3038.887" y2="2746.998"/>
		
			<line style="fill:none;stroke:#232323;stroke-width:16.6596;stroke-linecap:round;stroke-linejoin:round;stroke-miterlimit:10;" x1="2657.665" y1="3013.552" x2="2897.379" y2="3013.552"/>
		
			<line style="fill:none;stroke:#232323;stroke-width:16.6596;stroke-linecap:round;stroke-linejoin:round;stroke-miterlimit:10;" x1="2416.633" y1="2075.215" x2="3260.956" y2="2075.215"/>
		
			<line style="fill:none;stroke:#232323;stroke-width:16.6596;stroke-linecap:round;stroke-linejoin:round;stroke-miterlimit:10;" x1="2416.633" y1="1788.355" x2="3048.28" y2="1788.355"/>
		
			<line style="fill:none;stroke:#232323;stroke-width:16.6596;stroke-linecap:round;stroke-linejoin:round;stroke-miterlimit:10;" x1="2416.633" y1="1711.791" x2="3260.956" y2="1711.791"/>
		
			<line style="fill:none;stroke:#232323;stroke-width:16.6596;stroke-linecap:round;stroke-linejoin:round;stroke-miterlimit:10;" x1="2416.633" y1="1424.931" x2="3048.28" y2="1424.931"/>
		
			<line style="fill:none;stroke:#232323;stroke-width:16.6596;stroke-linecap:round;stroke-linejoin:round;stroke-miterlimit:10;" x1="2416.633" y1="1348.368" x2="3260.956" y2="1348.368"/>
		<path style="fill:#5B58DB;" d="M2532.996,2544.626h-104.364c-6.6,0-12-5.4-12-12v-104.364c0-6.6,5.4-12,12-12h104.364
			c6.6,0,12,5.4,12,12v104.364C2544.996,2539.226,2539.596,2544.626,2532.996,2544.626z"/>
		<path style="fill:#5B58DB;" d="M2532.996,2811.18h-104.364c-6.6,0-12-5.4-12-12v-104.364c0-6.6,5.4-12,12-12h104.364
			c6.6,0,12,5.4,12,12v104.364C2544.996,2805.78,2539.596,2811.18,2532.996,2811.18z"/>
		<path style="fill:#5B58DB;" d="M2532.996,3077.734h-104.364c-6.6,0-12-5.4-12-12V2961.37c0-6.6,5.4-12,12-12h104.364
			c6.6,0,12,5.4,12,12v104.364C2544.996,3072.334,2539.596,3077.734,2532.996,3077.734z"/>
		<path style="fill:#2ED6DF;" d="M3704.419,2614.446h-55.252c-3.962-23.824-13.331-45.818-26.804-64.686l39.076-39.076
			c2.535-2.535,2.535-6.677,0-9.211l-27.243-27.243c-2.53-2.535-6.677-2.535-9.211,0l-39.076,39.076
			c-18.868-13.467-40.862-22.841-64.686-26.809v-55.246c0-3.583-2.931-6.514-6.514-6.514h-38.523c-3.583,0-6.514,2.931-6.514,6.514
			v55.252c-23.823,3.968-45.818,13.337-64.686,26.804l-39.076-39.076c-2.535-2.535-6.676-2.535-9.211,0l-27.243,27.243
			c-2.535,2.535-2.535,6.677,0,9.211l39.076,39.076c-13.467,18.868-22.836,40.862-26.803,64.686h-55.252
			c-3.583,0-6.513,2.931-6.513,6.514v38.523c0,3.582,2.931,6.513,6.513,6.513h55.246c3.968,23.823,13.342,45.818,26.809,64.686l0,0
			l-39.076,39.076c-2.535,2.535-2.535,6.682,0,9.211l27.243,27.243c2.535,2.535,6.676,2.535,9.211,0l39.076-39.076
			c18.868,13.472,40.862,22.841,64.686,26.804v55.252c0,3.583,2.931,6.514,6.514,6.514h38.523c3.582,0,6.514-2.931,6.514-6.514
			v-55.246c23.823-3.968,45.818-13.337,64.686-26.809l39.076,39.076c2.535,2.535,6.682,2.535,9.211,0l27.243-27.243
			c2.535-2.53,2.535-6.677,0-9.211l-39.076-39.076c13.472-18.868,22.841-40.862,26.809-64.686h55.246
			c3.583,0,6.514-2.931,6.514-6.513v-38.523C3710.932,2617.377,3708.001,2614.446,3704.419,2614.446z M3586.957,2695.275
			c-8.994,14.922-21.533,27.46-36.455,36.454c-8.983,5.417-18.824,9.548-29.279,12.137c-8.256,2.046-16.887,3.132-25.772,3.132
			c-8.886,0-17.522-1.086-25.778-3.132c-10.454-2.589-20.295-6.72-29.279-12.137c-14.922-8.994-27.46-21.533-36.455-36.454
			c-5.417-8.983-9.548-18.824-12.137-29.279c-2.046-8.256-3.132-16.886-3.132-25.772s1.086-17.522,3.132-25.778
			c2.589-10.454,6.72-20.295,12.137-29.279c8.994-14.922,21.533-27.46,36.455-36.454c8.983-5.417,18.824-9.548,29.279-12.137
			c8.256-2.046,16.892-3.132,25.778-3.132c8.885,0,17.516,1.086,25.772,3.132c10.454,2.589,20.295,6.72,29.279,12.137
			c14.922,8.994,27.46,21.533,36.455,36.454c5.417,8.983,9.548,18.824,12.137,29.279c2.046,8.256,3.132,16.892,3.132,25.778
			s-1.086,17.516-3.132,25.772C3596.504,2676.45,3592.374,2686.291,3586.957,2695.275z"/>
		<path style="fill:#2ED6DF;" d="M3412.444,2935.524h-29.681c-2.129-12.798-7.162-24.613-14.399-34.749l20.992-20.992
			c1.362-1.362,1.362-3.587,0-4.948l-14.635-14.635c-1.359-1.362-3.587-1.362-4.948,0l-20.992,20.992
			c-10.136-7.234-21.951-12.27-34.749-14.402v-29.678c0-1.925-1.575-3.499-3.499-3.499h-20.694c-1.925,0-3.499,1.575-3.499,3.499
			v29.681c-12.798,2.132-24.614,7.164-34.749,14.399l-20.992-20.992c-1.362-1.362-3.586-1.362-4.948,0l-14.635,14.635
			c-1.362,1.362-1.362,3.587,0,4.948l20.992,20.992c-7.234,10.136-12.268,21.951-14.399,34.749h-29.681
			c-1.925,0-3.499,1.575-3.499,3.499v20.694c0,1.925,1.575,3.499,3.499,3.499h29.678c2.132,12.798,7.167,24.614,14.402,34.749l0,0
			l-20.992,20.992c-1.362,1.362-1.362,3.589,0,4.948l14.635,14.635c1.362,1.362,3.586,1.362,4.948,0l20.992-20.992
			c10.136,7.237,21.951,12.27,34.749,14.399v29.681c0,1.925,1.575,3.499,3.499,3.499h20.694c1.925,0,3.499-1.575,3.499-3.499
			v-29.678c12.798-2.132,24.613-7.165,34.749-14.402l20.992,20.992c1.362,1.362,3.59,1.362,4.948,0l14.635-14.635
			c1.362-1.359,1.362-3.587,0-4.948l-20.992-20.992c7.237-10.136,12.27-21.951,14.402-34.749h29.678
			c1.925,0,3.499-1.575,3.499-3.499v-20.694C3415.943,2937.098,3414.369,2935.524,3412.444,2935.524z M3349.343,2978.945
			c-4.832,8.016-11.568,14.752-19.583,19.583c-4.826,2.91-10.113,5.129-15.729,6.52c-4.435,1.099-9.072,1.683-13.845,1.683
			s-9.413-0.583-13.848-1.683c-5.616-1.391-10.903-3.61-15.729-6.52c-8.016-4.832-14.752-11.568-19.583-19.583
			c-2.91-4.826-5.129-10.113-6.52-15.729c-1.099-4.435-1.683-9.072-1.683-13.845s0.583-9.413,1.683-13.848
			c1.391-5.616,3.61-10.903,6.52-15.729c4.832-8.016,11.567-14.752,19.583-19.583c4.826-2.91,10.113-5.129,15.729-6.52
			c4.435-1.099,9.074-1.683,13.848-1.683s9.41,0.583,13.845,1.683c5.616,1.391,10.903,3.61,15.729,6.52
			c8.016,4.832,14.752,11.568,19.583,19.583c2.91,4.826,5.129,10.113,6.52,15.729c1.099,4.435,1.683,9.074,1.683,13.848
			s-0.583,9.41-1.683,13.845C3354.472,2968.833,3352.253,2974.119,3349.343,2978.945z"/>
	</g>
	<g>
		<circle style="fill:#D74227;" cx="2281.939" cy="953.585" r="360.967"/>
		<circle style="fill:#F2F2F2;" cx="2281.939" cy="953.585" r="265.064"/>
		<circle style="fill:#D74227;" cx="2281.939" cy="953.585" r="155.842"/>
		
			<ellipse transform="matrix(0.7071 -0.7071 0.7071 0.7071 -5.9221 1892.8734)" style="fill:#F2F2F2;" cx="2281.939" cy="953.585" rx="59.939" ry="59.939"/>
		<g>
			<path style="fill:#2E1B3F;" d="M2696.275,761.956l-362.118,191.345c-4.466,2.36-10.05,0.637-12.41-3.829l-8.891-16.826
				c-2.36-4.466-0.636-10.05,3.829-12.41l362.118-191.345c4.466-2.36,10.05-0.637,12.41,3.829l8.891,16.826
				C2702.463,754.012,2700.74,759.597,2696.275,761.956z"/>
			<path style="fill:#7958A4;" d="M2807.565,747.432c1.067,0.332,2.167,0.263,3.141-0.112c-0.15,0.102-0.311,0.2-0.477,0.288
				l-136.782,72.276c-0.177,0.093-0.359,0.176-0.541,0.245l-0.011,0.006c-1.174,0.819-2.7,1.11-4.165,0.657l-73.573-22.701
				c-2.526-0.779-3.952-3.479-3.173-6.005l22.701-73.573c0.441-1.428,1.503-2.51,2.798-3.031c0.185-0.138,0.386-0.263,0.599-0.375
				l136.782-72.276c0.198-0.105,0.404-0.195,0.61-0.268c-0.903,0.595-1.614,1.486-1.954,2.59l-22.701,73.573
				c-0.779,2.526,0.647,5.225,3.173,6.005L2807.565,747.432z"/>
			<path style="fill:#7958A4;" d="M2373.815,961.515c0.531,0.409,1.006,0.551,1.374,0.464c-0.049,0.043-0.103,0.083-0.162,0.113
				l-48.224,25.482c-0.062,0.033-0.129,0.058-0.198,0.073l-0.004,0.002c-0.38,0.354-1.006,0.288-1.734-0.271l-36.532-28.051
				c-1.254-0.963-2.351-3.039-2.44-4.618l-2.59-45.986c-0.05-0.892,0.235-1.443,0.719-1.574c0.058-0.062,0.126-0.112,0.201-0.151
				l48.224-25.482c0.07-0.037,0.146-0.063,0.224-0.077c-0.298,0.248-0.46,0.73-0.421,1.42l2.59,45.986
				c0.089,1.579,1.186,3.655,2.44,4.618L2373.815,961.515z"/>
		</g>
	</g>
	<g>
		<path style="fill:#193359;" d="M5439.604,2197.464h-1045.8c-15.681,0-28.511-12.83-28.511-28.511v-738.69
			c0-15.681,12.83-28.511,28.511-28.511h1045.8c15.681,0,28.511,12.83,28.511,28.511v738.69
			C5468.114,2184.634,5455.284,2197.464,5439.604,2197.464z"/>
		<path style="fill:#DFE8F9;" d="M5435.314,2155.195H4398.093c-2.457,0-4.467-2.01-4.467-4.467v-627.213
			c0-2.457,2.01-4.467,4.467-4.467h1037.222c2.457,0,4.467,2.01,4.467,4.467v627.213
			C5439.781,2153.185,5437.771,2155.195,5435.314,2155.195z"/>
		<g>
			<g>
				<path style="fill:none;stroke:#231F20;stroke-width:10.3353;stroke-miterlimit:10;" d="M4490.948,1401.75
					c-0.001-2.463-0.441-4.953-0.441-7.484c0-34.835,28.241-63.069,63.076-63.069c34.829,0,63.069,28.234,63.069,63.069
					c0,25.323-14.927,47.162-36.456,57.192"/>
				
					<ellipse transform="matrix(0.1602 -0.9871 0.9871 0.1602 2409.8079 5738.9248)" style="fill:#231F20;" cx="4577.554" cy="1453.267" rx="16.643" ry="16.643"/>
			</g>
			<g>
				<path style="fill:none;stroke:#231F20;stroke-width:10.3353;stroke-miterlimit:10;" d="M4674.857,1401.75
					c-0.001-2.463-0.441-4.953-0.441-7.484c0-34.835,28.241-63.069,63.076-63.069c34.829,0,63.069,28.234,63.069,63.069
					c0,25.323-14.927,47.162-36.456,57.192"/>
				
					<ellipse transform="matrix(0.2298 -0.9732 0.9732 0.2298 2253.1091 5753.4624)" style="fill:#231F20;" cx="4761.463" cy="1453.267" rx="16.643" ry="16.643"/>
			</g>
			<g>
				<path style="fill:none;stroke:#231F20;stroke-width:10.3353;stroke-miterlimit:10;" d="M4858.766,1401.75
					c-0.001-2.463-0.441-4.953-0.441-7.484c0-34.835,28.241-63.069,63.076-63.069c34.829,0,63.069,28.234,63.069,63.069
					c0,25.323-14.927,47.162-36.456,57.192"/>
				
					<ellipse transform="matrix(0.1602 -0.9871 0.9871 0.1602 2718.708 6101.9937)" style="fill:#231F20;" cx="4945.372" cy="1453.267" rx="16.643" ry="16.643"/>
			</g>
			<g>
				<path style="fill:none;stroke:#231F20;stroke-width:10.3353;stroke-miterlimit:10;" d="M5037.982,1401.75
					c-0.001-2.463-0.441-4.953-0.441-7.484c0-34.835,28.24-63.069,63.076-63.069c34.828,0,63.069,28.234,63.069,63.069
					c0,25.323-14.927,47.162-36.457,57.192"/>
				
					<ellipse transform="matrix(0.1602 -0.9871 0.9871 0.1602 2869.2166 6278.8955)" style="fill:#231F20;" cx="5124.587" cy="1453.267" rx="16.643" ry="16.643"/>
			</g>
			<g>
				<path style="fill:none;stroke:#231F20;stroke-width:10.3353;stroke-miterlimit:10;" d="M5217.198,1401.75
					c-0.001-2.463-0.442-4.953-0.442-7.484c0-34.835,28.241-63.069,63.076-63.069c34.828,0,63.069,28.234,63.069,63.069
					c0,25.323-14.927,47.162-36.457,57.192"/>
				
					<ellipse transform="matrix(0.2298 -0.9732 0.9732 0.2298 2670.845 6281.2944)" style="fill:#231F20;" cx="5303.803" cy="1453.267" rx="16.643" ry="16.643"/>
			</g>
		</g>
		<g>
			<g>
				<rect x="4440.401" y="1588.792" style="fill:#37577C;" width="114.126" height="114.126"/>
				<rect x="4580.147" y="1588.792" style="fill:#37577C;" width="114.126" height="114.126"/>
				<rect x="4719.894" y="1588.792" style="fill:#37577C;" width="114.126" height="114.126"/>
				<rect x="4859.641" y="1588.792" style="fill:#37577C;" width="114.126" height="114.126"/>
				<rect x="4999.387" y="1588.792" style="fill:#37577C;" width="114.126" height="114.126"/>
				<rect x="5139.133" y="1588.792" style="fill:#37577C;" width="114.126" height="114.126"/>
				<rect x="5278.88" y="1588.792" style="fill:#37577C;" width="114.126" height="114.126"/>
			</g>
			<g>
				<rect x="4440.401" y="1722.467" style="fill:#37577C;" width="114.126" height="114.126"/>
				<rect x="4580.147" y="1722.467" style="fill:#37577C;" width="114.126" height="114.126"/>
				<rect x="4719.894" y="1722.467" style="fill:#37577C;" width="114.126" height="114.126"/>
				<rect x="4859.641" y="1722.467" style="fill:#37577C;" width="114.126" height="114.126"/>
				<rect x="4999.387" y="1722.467" style="fill:#37577C;" width="114.126" height="114.126"/>
				<rect x="5139.133" y="1722.467" style="fill:#37577C;" width="114.126" height="114.126"/>
				<rect x="5278.88" y="1722.467" style="fill:#37577C;" width="114.126" height="114.126"/>
			</g>
			<g>
				<rect x="4440.401" y="1856.143" style="fill:#37577C;" width="114.126" height="114.126"/>
				<rect x="4580.147" y="1856.143" style="fill:#37577C;" width="114.126" height="114.126"/>
				<rect x="4719.894" y="1856.143" style="fill:#37577C;" width="114.126" height="114.126"/>
				<rect x="4859.641" y="1856.143" style="fill:#37577C;" width="114.126" height="114.126"/>
				<rect x="4999.387" y="1856.143" style="fill:#37577C;" width="114.126" height="114.126"/>
				<rect x="5139.133" y="1856.143" style="fill:#37577C;" width="114.126" height="114.126"/>
				<rect x="5278.88" y="1856.143" style="fill:#37577C;" width="114.126" height="114.126"/>
			</g>
			<g>
				<rect x="4440.401" y="1989.818" style="fill:#37577C;" width="114.126" height="114.126"/>
				<rect x="4580.147" y="1989.818" style="fill:#37577C;" width="114.126" height="114.126"/>
				<rect x="4719.894" y="1989.818" style="fill:#37577C;" width="114.126" height="114.126"/>
				<rect x="4859.641" y="1989.818" style="fill:#37577C;" width="114.126" height="114.126"/>
				<rect x="4999.387" y="1989.818" style="fill:#37577C;" width="114.126" height="114.126"/>
				<rect x="5139.133" y="1989.818" style="fill:#37577C;" width="114.126" height="114.126"/>
				<rect x="5278.88" y="1989.818" style="fill:#37577C;" width="114.126" height="114.126"/>
			</g>
		</g>
	</g>
	<g>
		<g>
			<path style="fill:#F8B541;" d="M4541.178,1201.219h-129.737c-2.442,0-4.441-1.998-4.441-4.441v-32.71
				c0-0.52,0.426-0.945,0.946-0.945h136.727c0.52,0,0.946,0.425,0.946,0.945v32.71
				C4545.619,1199.22,4543.621,1201.219,4541.178,1201.219z"/>
			<path style="fill:#F8B541;" d="M4611.951,1144.234h-271.282c-2.166,0-3.938-1.772-3.938-3.938v-47.828
				c0-2.166,1.772-3.938,3.938-3.938h271.282c2.166,0,3.938,1.772,3.938,3.938v47.828
				C4615.889,1142.462,4614.117,1144.234,4611.951,1144.234z"/>
			<path style="fill:#F8B541;" d="M4611.951,1061.64h-271.282c-2.166,0-3.938-1.772-3.938-3.938v-47.828
				c0-2.166,1.772-3.938,3.938-3.938h271.282c2.166,0,3.938,1.772,3.938,3.938v47.828
				C4615.889,1059.868,4614.117,1061.64,4611.951,1061.64z"/>
			<path style="fill:#F8B541;" d="M4712.782,677.266c0,74.084-34.066,140.211-87.388,183.567
				c-25.346,20.609-39.809,51.735-39.809,84.402v27.123c0,3.678-3.009,6.687-6.688,6.687h-205.17c-3.678,0-6.688-3.009-6.688-6.687
				v-27.121c0-32.668-14.464-63.795-39.812-84.404c-53.325-43.356-87.391-109.483-87.391-183.567
				c0-130.597,105.871-236.473,236.473-236.473S4712.782,546.669,4712.782,677.266z"/>
		</g>
		
			<ellipse transform="matrix(0.5 -0.866 0.866 0.5 1669.0712 4078.2515)" style="fill:#EBF2D4;" cx="4366.405" cy="593.668" rx="106.86" ry="46.713"/>
	</g>
	<g>
		<g>
			<path style="fill:#FFB7A4;" d="M3524.331,1742.917c0,0-23.456-4.212-28.27,0.903c-4.814,5.115-0.534,11.305,18.42,14.314
				c18.955,3.009,18.575,1.03,18.575,1.03L3524.331,1742.917z"/>
			<polygon style="fill:#5554B1;" points="3311.918,1513.656 3650.395,1843.106 3626.927,1866.574 3300.185,1525.39 			"/>
			<path style="fill:#FFB7A4;" d="M3777.963,1866.574l-35.201,39.715c0,0-81.234-0.903-99.286-39.715
				c-18.052-38.812-69.106-42.626-66.692-66.893c1.805-18.152,18.854-6.218,18.854-6.218l-47.537-49.643
				c0,0,37.608,8.124,52.05,14.442c14.442,6.318,12.802,8.695,47.838,17.15C3674.383,1781.781,3777.963,1866.574,3777.963,1866.574z
				"/>
			<path style="fill:#FFB7A4;" d="M3562.842,1799.18c0,0-25.467,24.022-12.076,34.115c6.853,5.165,31.632-17.868,31.632-17.868
				L3562.842,1799.18z"/>
			
				<line style="fill:none;stroke:#C1635F;stroke-width:1.5712;stroke-linecap:round;stroke-linejoin:round;stroke-miterlimit:10;" x1="3611.97" y1="1802.222" x2="3594.691" y2="1793.145"/>
		</g>
		<g>
			<g>
				<path style="fill:#191E44;" d="M4270.903,1828.004c-58.813,57.163-121.739,115.195-182.396,170.582
					c-20.556,18.66-41.09,37.342-61.772,55.874c-21.158,21.808-52.745,26.37-77.901,10.936
					c-18.286-10.864-44.172-27.53-62.604-38.766c-51.321-31.998-104.682-65.863-155.591-98.6l-15.51-9.95
					c-2.605-1.622-4.756-4.076-6.314-7.615c-1.509-3.63-2.607-8.012-2.277-15.011c1.124-23.822,13.533-44.749,31.488-57.686
					c8.236-5.72,16.122-8.319,23.677-5.013c10.239,4.658,39.56,18.106,50.275,22.989c54.894,25.195,112.223,51.985,166.839,77.992
					c11.095,5.249,22.133,10.605,33.202,15.903l-77.901,10.937c18.811-20.429,37.771-40.707,56.708-61.007
					c46.384-49.517,96.377-102.145,143.758-150.503c7.986-8.072,21.236-21.565,29.287-29.558
					C4238.64,1650.622,4340.896,1753.919,4270.903,1828.004L4270.903,1828.004z"/>
			</g>
		</g>
	</g>
	<g>
		<g>
			<g>
				<path style="fill:#EF9C8B;" d="M4345.936,1682.307c0.172,12.629,1.171,24.454,3.57,33.226
					c8.955,32.651,82.157,24.225,83.202-12.629c0.425-14.672,0.93-32.755,1.378-49.195c0.7-24.868,1.274-46.004,1.274-46.004
					h-84.258C4351.102,1607.704,4345.453,1647.933,4345.936,1682.307z"/>
				<path style="fill:#E28474;" d="M4345.936,1682.307c31.216-5.901,62.421-17.324,88.15-28.599
					c0.7-24.868,1.274-46.004,1.274-46.004h-84.258C4351.102,1607.704,4345.453,1647.933,4345.936,1682.307z"/>
			</g>
			<path style="fill:#353535;" d="M4464.589,1578.089c0,0,71.295-81.275,11.585-126.322c9.984-41.358,1.329-91.689-125.43-86.313
				c-124.636,5.286-132.606,92.569-73.363,120.216c59.243,27.647,109.687,5.339,109.687,5.339s13.143,97.349,46.714,93.004
				C4467.354,1579.668,4464.589,1578.089,4464.589,1578.089z"/>
			<path style="fill:#FFB7A4;" d="M4273.33,1608.141c7.858,16.56,19.39,31.635,35.648,43.803
				c59.639,44.63,126.385-44.236,126.385-44.236s2.435,0.702,6.114,0.949c10.375,0.696,30.669-2.254,34.168-34.914
				c4.612-42.985-22.115-43.079-34.141-13.331c-0.345,0.867-0.686,1.755-1.009,2.671c-6.125,17.311-20.133-3.758-18.731-33.2
				c0.879-18.467-28.57-8.627-29.899-17.001c-2.962-18.672-2.458-30.897,0.586-43.969c-63.982,27.648-123.761,1.751-123.761,1.751
				C4257.488,1509.157,4252.345,1563.949,4273.33,1608.141z"/>
		</g>
		<g>
			<g id="sepatu_kanan_00000167387586033277727970000001141469907522241185_">
				<path style="fill:#282828;" d="M4604.668,3479.757h-45.216c-3.842,0-7.424-1.933-9.537-5.144l-6.836-10.388l-0.53-0.808
					c-4.271-6.492-13.639-6.914-18.475-0.831l-1.305,1.639h-190.397c1.423-7.79,4.755-15.998,12.037-20.966
					c15.684-10.693,109.242-49.525,124.479-55.821c1.382-0.571,2.862-0.865,4.359-0.865h126.142c5.975,0,10.942,4.606,11.389,10.564
					l5.032,67.087l0.243,3.261C4616.55,3474.11,4611.309,3479.757,4604.668,3479.757z"/>
				<path style="fill:#727272;" d="M4522.769,3464.225l-12.635,15.879c-2.167,2.724-5.455,4.312-8.935,4.312h-158.324
					c-6.488,0-11.683-5.4-11.409-11.885c0.108-2.585,0.375-5.417,0.906-8.306H4522.769z"/>
				<path style="fill:#727272;" d="M4604.668,3479.757h-45.216c-3.842,0-7.424-1.933-9.537-5.144l-6.836-10.388h72.731l0.243,3.261
					C4616.55,3474.11,4611.309,3479.757,4604.668,3479.757z"/>
			</g>
			<g id="sepatu_kiri_00000079487889285665564360000009622768196829651358_">
				<path style="fill:#282828;" d="M4344.365,3479.757h-45.216c-3.842,0-7.424-1.933-9.537-5.144l-6.836-10.388l-0.53-0.808
					c-4.271-6.492-13.639-6.914-18.475-0.831l-1.305,1.639h-190.397c1.423-7.79,4.755-15.998,12.037-20.966
					c15.683-10.693,109.241-49.525,124.479-55.821c1.382-0.571,2.862-0.865,4.359-0.865h126.142c5.975,0,10.942,4.606,11.389,10.564
					l5.032,67.087l0.243,3.261C4356.247,3474.11,4351.005,3479.757,4344.365,3479.757z"/>
				<path style="fill:#727272;" d="M4262.465,3464.225l-12.635,15.879c-2.167,2.724-5.455,4.312-8.935,4.312h-158.324
					c-6.488,0-11.682-5.4-11.409-11.885c0.108-2.585,0.375-5.417,0.906-8.306H4262.465z"/>
				<path style="fill:#727272;" d="M4344.365,3479.757h-45.216c-3.842,0-7.424-1.933-9.537-5.144l-6.836-10.388h72.731l0.243,3.261
					C4356.247,3474.11,4351.005,3479.757,4344.365,3479.757z"/>
			</g>
			<g id="cELANA_00000007394615383066510530000007008757751467162274_">
				<path style="fill:#0C0442;" d="M4457.541,3386.574h151.758c7.079,0,12.781-5.806,12.654-12.883l-15.892-1010.199h-214.02
					l52.851,1010.893C4445.145,3381.188,4450.733,3386.574,4457.541,3386.574z"/>
				<path style="fill:#0C0442;" d="M4200.825,3386.574h159.73c6.954,0,12.605-5.611,12.656-12.564l18.83-1010.517h-236.685
					l32.82,1010.893C4188.429,3381.188,4194.017,3386.574,4200.825,3386.574z"/>
				<path style="fill:#0C0442;" d="M4265.098,2641.928h231.832c60.698,0,109.904-49.206,109.904-109.904v-181.936h-451.64v181.936
					C4155.194,2592.722,4204.399,2641.928,4265.098,2641.928z"/>
			</g>
			<path id="XMLID_00000022528406582390427140000012330023955634926776_" style="fill:#E2E2E2;" d="M4432.968,1684.797
				l171.223,39.54c24.696,5.798,41.383,28.858,39.168,54.129l-52.724,306.707l15.425,278.318c0,0-55.328-9.818-219.591-9.818
				c-164.263,0-231.276,20.478-231.276,20.478l32.692-278.006l-22.385-320.599c-4.789-27.809,16.662-56.011,49.256-65.693
				l131.618-25.057c0,0-1.535,42.042,40.418,42.042S4432.968,1684.797,4432.968,1684.797z"/>
			<polygon style="fill:#DF3F49;" points="4424.823,1746.665 4399.306,1763.556 4445.663,2154.45 4383.042,2270.353 
				4327.592,2158.825 4381.117,1762.964 4354.673,1746.382 4390.633,1726.717 			"/>
			<path style="fill:#FFFFFF;" d="M4390.633,1726.717l29.568,38.752c0,0,47.479-44.305,12.767-80.672
				C4432.968,1684.797,4432.923,1711.201,4390.633,1726.717z"/>
			<path style="fill:#FFFFFF;" d="M4390.633,1726.717l-29.596,39.612c0,0-49.842-45.179-15.13-81.546
				C4345.906,1684.784,4348.343,1711.201,4390.633,1726.717z"/>
			<g>
				<g>
					<path style="fill:#191E44;" d="M4387.97,2092.929c0,31.414,2.663,325.296,2.663,325.296s230.57-9.167,247.12-39.165
						c8.227-14.93-23.881-293.887-23.881-293.887s33.477-275.56,30.392-316.933c-5.359-71.76-211.303-83.457-211.303-83.457
						s20.944,105.23,10.731,166.743C4434.659,1906.165,4387.97,2089.491,4387.97,2092.929z"/>
				</g>
				<path style="fill:#2E376D;" d="M4492.283,1857.965l-43.924-76.275l43.924-28.72l-59.322-68.187c0,0,10.583,98.759,0.371,160.272
					c-9.033,54.638-45.361,247.874-45.361,247.874L4492.283,1857.965z"/>
			</g>
			<g>
				<g>
					<path style="fill:#191E44;" d="M4387.97,2092.929c0,31.414,19.795,325.296,19.795,325.296s-254.319-10.027-270.869-40.025
						c-8.011-14.538,39.371-276.245,39.371-276.245s-17.949-300.266-14.784-342.713c5.359-71.76,184.891-74.445,184.891-74.445
						s-10.681,105.647-0.468,167.16C4354.939,1906.595,4387.97,2089.491,4387.97,2092.929z"/>
				</g>
				<path style="fill:#2E376D;" d="M4287.584,1857.965l49.904-77.436l-49.904-27.558l58.791-68.174c0,0-10.052,98.745,0.161,160.259
					c9.033,54.638,41.435,247.874,41.435,247.874L4287.584,1857.965z"/>
			</g>
			<path style="fill:#07102B;" d="M4472.529,2208.053l114.177,18.3c4.372,0.701,8.484-2.275,9.185-6.647l4.613-28.779
				c0.701-4.372-2.275-8.484-6.647-9.185l-114.178-18.3c-4.372-0.701-8.484,2.275-9.185,6.647l-4.612,28.779
				C4465.181,2203.24,4468.157,2207.352,4472.529,2208.053z"/>
			<path style="fill:#07102B;" d="M4199.535,2223.997l114.865-13.319c4.398-0.51,7.55-4.489,7.04-8.887l-3.357-28.953
				c-0.51-4.398-4.489-7.55-8.887-7.04l-114.865,13.319c-4.398,0.51-7.55,4.489-7.04,8.887l3.357,28.953
				C4191.158,2221.355,4195.137,2224.507,4199.535,2223.997z"/>
			
				<line style="fill:none;stroke:#0D1535;stroke-width:3.3706;stroke-miterlimit:10;" x1="4387.117" y1="2110.343" x2="4387.97" y2="2333.666"/>
			<circle style="fill:#03060F;" cx="4387.117" cy="2145.414" r="12.909"/>
			
				<ellipse transform="matrix(0.3827 -0.9239 0.9239 0.3827 619.5977 5448.7563)" style="fill:#03060F;" cx="4387.117" cy="2260.732" rx="12.909" ry="12.909"/>
		</g>
	</g>
	<g>
		<g>
			<g>
				<g>
					<g>
						<path style="fill:#FFB7A4;" d="M4270.739,2293.924c8.067-6.419,22.965-14.001,42.236-27.969
							c17.563-12.73,39.982-32.222,39.982-32.222l59.176-20.637l-39.035-71.045c0,0-48.502,31.158-50.512,31.533
							c-2.014,0.39-28.603,0.274-42.304-0.062c-13.696-0.326-38.387,4.068-53.522,7.146c-15.141,3.068-35.486,9.142-29.449,19.341
							c5.117,8.641,34.649,1.613,45.632,0.816c1.97-0.143,3.345-0.085,3.868,0.292c1.354,0.965-4.913,6.931-14.117,14.698
							c-14.833,12.535-28.412,21.738-38.84,30.201c-12.465,10.117-33.264,25.127-27.035,31.495
							c6.234,6.353,19.456-4.061,32.075-13.519c11.34-8.51,30.092-20.476,30.551-19.789c0.469,0.681-14.323,15.041-27.968,25.58
							c-15.386,11.87-37.132,28.936-31.753,35.267c5.374,6.32,26.518-10.608,44.732-23.774
							c18.251-13.172,28.608-19.105,29.491-17.978c0.889,1.138-9.58,9.674-27.301,24.182
							c-18.158,14.865-28.235,25.625-23.449,30.494c4.77,4.865,15.313-4.092,33.424-18.458c19.01-15.079,30.84-19.226,30.84-19.226
							s-12.132,13.967-16.5,17.651c-16.901,14.258-26.521,23.135-21.158,28.565
							C4225.587,2332.365,4246.158,2313.45,4270.739,2293.924z"/>
					</g>
				</g>
			</g>
		</g>
		<g>
			<g>
				<path style="fill:#0E1435;" d="M4656.515,1768.335c6.256,76.756,10.552,157.02,14.264,234.058
					c1.174,26.043,2.38,52.083,3.374,78.143c3.182,29.967-12.113,56.193-39.583,66.435c-17.88,6.848-44.112,15.75-62.341,22.473
					c-51.273,18.285-105.021,36.917-156.612,54.418l-15.702,5.347c-2.601,0.929-5.576,0.989-9.041-0.088
					c-3.506-1.172-7.351-3.13-12.376-7.827c-17.31-16.179-26.042-38.394-26.007-60.355c0.151-9.455,2.285-17.337,8.957-21.002
					c8.941-4.738,34.647-18.266,44.012-23.222c48.121-25.293,98.737-51.406,147.322-75.979c9.844-5.013,19.736-9.914,29.602-14.877
					l-39.583,66.435c-3.649-25.822-7.087-51.662-10.557-77.5c-8.338-63.16-16.761-130.798-23.572-194.002
					c-1.085-10.604-2.971-28.263-3.955-38.868C4499.128,1680.339,4643.846,1667.153,4656.515,1768.335L4656.515,1768.335z"/>
			</g>
		</g>
	</g>
	<g>
		<g>
			<path style="fill:#0C0442;" d="M1842.552,3432.174l0.6-1.039c6.032-10.448,2.419-23.931-8.028-29.963l-366.946-211.857
				c-10.448-6.032-23.931-2.419-29.963,8.029l-0.6,1.039c-6.032,10.448-2.419,23.931,8.029,29.963l366.946,211.857
				C1823.037,3446.235,1836.521,3442.622,1842.552,3432.174z"/>
			<g>
				<circle style="fill:#919191;" cx="1829.022" cy="3437.886" r="42.337"/>
				
					<ellipse transform="matrix(0.7071 -0.7071 0.7071 0.7071 -1895.2446 2300.2476)" style="fill:#494949;" cx="1829.022" cy="3437.886" rx="27.24" ry="27.24"/>
			</g>
			<path style="fill:#0C0442;" d="M1028.095,3432.174l-0.6-1.039c-6.032-10.448-2.419-23.931,8.029-29.963l366.946-211.857
				c10.447-6.032,23.931-2.419,29.963,8.029l0.6,1.039c6.032,10.448,2.419,23.931-8.028,29.963l-366.946,211.857
				C1047.61,3446.235,1034.127,3442.622,1028.095,3432.174z"/>
			<path style="fill:#0C0442;" d="M1448.256,3177.037h-25.237c-6.58,0-11.964,5.384-11.964,11.964v216.436
				c0,6.58,5.384,11.964,11.964,11.964h25.237c6.58,0,11.964-5.384,11.964-11.964v-216.436
				C1460.22,3182.421,1454.836,3177.037,1448.256,3177.037z"/>
			<path style="fill:#0C0442;" d="M1506.79,2944.185h-142.304c-7.818,0-14.214-6.397-14.214-14.215v-29.984
				c0-7.818,6.396-14.215,14.214-14.215h142.304c7.818,0,14.215,6.396,14.215,14.215v29.984
				C1521.004,2937.788,1514.608,2944.185,1506.79,2944.185z"/>
			<path style="fill:#171072;" d="M1567.036,2907.415h-262.798c-6.6,0-12-5.4-12-12v-74.123c0-6.6,5.4-12,12-12h262.798
				c6.6,0,12,5.4,12,12v74.123C1579.036,2902.015,1573.636,2907.415,1567.036,2907.415z"/>
			<path style="fill:#0298A9;" d="M1593.036,2747.014c0,25.443-20.817,46.26-46.269,46.26h-402.192
				c-25.452,0-46.269-20.816-46.269-46.26l-80.574-582.649c0-41.927,31.916-76.767,72.657-81.403
				c3.049-0.356,6.142-0.535,9.281-0.535h330.845c45.065,0,81.947,36.873,81.947,81.938L1593.036,2747.014z"/>
			<path style="fill:#00858C;" d="M1184.328,2793.274h-39.752c-25.452,0-46.269-20.816-46.269-46.26l-80.574-582.649
				c0-41.927,31.916-76.767,72.657-81.403L1184.328,2793.274z"/>
			<path style="fill:#13A3A3;" d="M1509.387,2117.73c0,19.444-6.481,37.452-17.402,51.957c-2.469,3.281-5.171,6.392-8.077,9.289
				c-15.717,15.717-37.399,25.47-61.246,25.47h-219.88c-47.695,0-86.716-39.021-86.716-86.716c0-1.694,0.054-3.379,0.152-5.055
				c1.266-21.851,10.716-41.597,25.319-56.2c15.717-15.717,37.398-25.47,61.246-25.47h219.88
				C1470.357,2031.005,1509.387,2070.026,1509.387,2117.73z"/>
			<path style="fill:#2ED6DF;" d="M1509.387,2117.73c0,19.444-6.481,37.452-17.402,51.957h-294.32
				c-37.274,0-69.252-23.839-81.447-57.011c1.266-21.851,10.716-41.597,25.319-56.2c15.717-15.717,37.398-25.47,61.246-25.47h219.88
				C1470.357,2031.005,1509.387,2070.026,1509.387,2117.73z"/>
			<path style="fill:none;stroke:#0C0442;stroke-width:44.575;stroke-linecap:round;stroke-miterlimit:10;" d="M1477.968,2566.211
				c0,0,87.834,0,201.529,0c113.695,0,139.302,285.95-109.598,286.974"/>
			<path style="fill:#2ED6DF;" d="M1575.625,2637.582c0,13.506-3.129,26.317-8.701,37.746
				c-14.095,28.92-43.835,48.979-78.024,48.979h-219.88c-47.695,0-86.725-39.03-86.725-86.725l-35.972-292.261
				c0-35.731,21.895-66.595,52.937-79.834c10.395-4.431,21.815-6.882,33.779-6.882h219.88c47.695,0,86.725,39.021,86.725,86.716
				L1575.625,2637.582z"/>
			<path style="fill:#0CBCBC;" d="M1566.924,2675.328c-14.095,28.92-43.835,48.979-78.024,48.979h-219.88
				c-47.695,0-86.725-39.03-86.725-86.725l-35.972-292.261c0-35.731,21.895-66.595,52.937-79.834
				c8.326,106.178,40.162,318.952,161.709,375.17C1408.335,2662.571,1483.703,2672.404,1566.924,2675.328z"/>
			<path style="fill:#0C8B8E;" d="M1803.698,2838.419v1.417c0,21.146-17.304,38.45-38.459,38.45h-648.905
				c-19.934,0-36.444-15.361-38.29-34.822H1784.7C1791.591,2843.465,1798.082,2841.629,1803.698,2838.419z"/>
			<path style="fill:#00A8B5;" d="M1803.698,2780.98v57.439c-5.616,3.209-12.107,5.046-18.998,5.046h-706.657
				c-0.116-1.195-0.17-2.407-0.17-3.628v-58.857c0-21.146,17.304-38.45,38.459-38.45h648.905
				C1786.394,2742.53,1803.698,2759.833,1803.698,2780.98z"/>
			<path style="fill:#0C0442;" d="M1447.906,3192.06h-24.536c-6.397,0-11.632-5.234-11.632-11.632v-234.171
				c0-6.397,5.234-11.632,11.632-11.632h24.536c6.397,0,11.632,5.234,11.632,11.632v234.171
				C1459.537,3186.825,1454.303,3192.06,1447.906,3192.06z"/>
			<path style="fill:#0298A9;" d="M1462.56,3237.128h-53.845c-6.6,0-12-5.4-12-12v-130.324c0-6.6,5.4-12,12-12h53.845
				c6.6,0,12,5.4,12,12v130.324C1474.56,3231.728,1469.16,3237.128,1462.56,3237.128z"/>
			<g>
				<circle style="fill:#919191;" cx="1435.637" cy="3437.886" r="42.337"/>
				
					<ellipse transform="matrix(0.7071 -0.7071 0.7071 0.7071 -2010.4642 2022.0826)" style="fill:#494949;" cx="1435.637" cy="3437.886" rx="27.24" ry="27.24"/>
			</g>
			<g>
				<circle style="fill:#919191;" cx="1041.626" cy="3437.886" r="42.337"/>
				
					<ellipse transform="matrix(0.7071 -0.7071 0.7071 0.7071 -2125.8677 1743.4744)" style="fill:#494949;" cx="1041.626" cy="3437.886" rx="27.24" ry="27.24"/>
			</g>
		</g>
		<g>
			<path style="fill:#D8665D;" d="M2132.63,2292.482c0.726,1.051,16.077,22.532,8.84,25.615
				c-7.237,3.083-24.432-25.714-41.748-30.781S2132.63,2292.482,2132.63,2292.482z"/>
			<path style="fill:#E5786A;" d="M2145.153,2297.271c0.726,1.051,16.077,22.532,8.84,25.615
				c-7.237,3.083-24.432-25.714-41.748-30.781C2094.93,2287.037,2145.153,2297.271,2145.153,2297.271z"/>
			<path style="fill:#ED896E;" d="M1948.518,2311.119c0,0,72.287,8.29,83.141,19.321c10.854,11.031,65.264,47.587,72.759,30.959
				c7.495-16.629-51.458-26.123-51.265-51.885c0.193-25.762,81.67-23.101,106.059,9.198c24.388,32.298,28.329-17.738-13.705-43.153
				c0,0,13.246,11.186,24.314,33.549c11.069,22.363,12.91-24.865-24.52-45.651c-37.43-20.787-106.54-4.662-112.977-5.372
				s-80.487-16.768-80.487-16.768L1948.518,2311.119z"/>
			<path style="fill:#E5786A;" d="M2176.29,2313.626c0,0-11.929-40.846-53.565-51.648
				C2114.136,2259.75,2157.299,2271.036,2176.29,2313.626z"/>
		</g>
		<g>
			<g>
				<path style="fill:#0D1333;" d="M1686.417,1943.824c41.231,72.301,80.402,147.562,118.116,221.76
					c0,0-35.221-28.802-35.221-28.802c10.38,4.241,20.781,8.42,31.144,12.712c61.506,25.281,125.069,52.119,186.094,78.519
					c0,0,15.466,6.665,15.466,6.665c7.047,3.185,9.834,10.75,10.826,20.209c2.139,23.428-6.304,45.641-21.12,61.644
					c-4.673,5.004-8.387,7.211-11.826,8.614c-3.406,1.306-6.414,1.453-9.118,0.71l-16.304-4.22
					c-53.587-13.816-109.383-28.563-162.707-43.169c-19.114-5.5-46.035-12.48-64.836-17.988
					c-13.062-3.646-23.696-11.719-30.734-22.141l-4.488-6.661c-40.456-60.332-81.247-122.824-119.409-184.633
					c-4.352-7.266-11.979-19.512-16.268-26.839C1507.869,1931.369,1632.318,1858.256,1686.417,1943.824L1686.417,1943.824z"/>
			</g>
		</g>
		<g>
			<path style="fill:#845800;" d="M1587.29,1697.066c-5.792-1.829-14.023-42.069-15.547-42.069s0.61,39.021-6.097,43.594
				c-6.707,4.573-42.07,4.878-48.167,1.524c-6.097-3.353-8.536-37.192-8.536-37.192s-3.049,32.01-13.321,36.582
				c-10.272,4.573-23.262-1.219-26.92-2.439s-0.914,49.691-21.949,57.007c0,0,36.735-4.725,48.869,69.354
				c12.134,74.079-89.872,84.596-105.876,56.245c-16.005-28.351,9.146-55.788-19.663-61.733
				c-28.808-5.945-48.014-39.326-33.381-80.938c14.633-41.612,60.095-18.556,58.532-66.686
				c-2.849-87.683,62.579-122.166,161.351-102.96c71.875,13.976,74.434,125.207,74.434,125.207
				c1.215,20.89,29.795,20.356,33.148,50.232c3.353,29.875-51.52,43.328-43.289,49.425c8.231,6.097,122.855,113.671-106.088,101.781
				C1456.879,1890.993,1587.29,1697.066,1587.29,1697.066z"/>
			<g>
				<path style="fill:#EF9C8B;" d="M1528.406,1870.231c-0.179,13.134-1.218,25.432-3.714,34.554
					c-9.313,33.957-85.443,25.193-86.529-13.134c-0.442-15.259-0.967-34.065-1.433-51.163c-0.728-25.862-1.325-47.844-1.325-47.844
					h87.628C1523.033,1792.644,1528.907,1834.482,1528.406,1870.231z"/>
				<path style="fill:#E28474;" d="M1527.832,1869.805c-32.465-6.137-64.918-18.018-91.676-29.743
					c-0.728-25.862-1.325-47.844-1.325-47.844h87.628C1522.459,1792.219,1528.334,1834.057,1527.832,1869.805z"/>
			</g>
			<path style="fill:#FFB7A4;" d="M1603.342,1792.673c-8.172,17.223-20.165,32.9-37.074,45.555
				c-62.024,46.416-131.439-46.005-131.439-46.005s-2.532,0.73-6.359,0.987c-10.79,0.724-31.896-2.344-35.535-36.31
				c-4.796-44.705,23-44.802,35.506-13.864c0.359,0.901,0.713,1.825,1.049,2.777c1.97,5.568,0.638-97.213,27.377-96.116
				c133.754,5.487,151.3,0,151.3,0C1619.817,1689.73,1625.166,1746.713,1603.342,1792.673z"/>
			<path style="fill:#845800;" d="M1421.199,1700.724c0,0,40.24,20.73,50.91-2.744c10.67-23.474,5.487-45.118,6.097-42.984
				c0.61,2.134,5.487,34.448,17.986,42.069c12.499,7.621,40.24,0.305,45.118-2.744c4.878-3.049,4.268-41.142,5.792-39.472
				c1.524,1.67,6.097,37.643,20.12,37.947c14.023,0.305,28.351-0.61,34.753-3.658c6.402-3.049,12.804-39.326,7.316-46.947
				c-5.487-7.621-65.848-14.633-115.539-18.291c-49.691-3.658-60.361,8.841-66.458,24.083
				C1421.199,1663.228,1421.199,1700.724,1421.199,1700.724z"/>
		</g>
		<g>
			<g>
				<path style="fill:#FFB7A4;" d="M2093.448,3331.664c-3.622,30.928-11.47,59.301-9.96,65.639
					c1.509,6.339,35.918,57.047,98.399,69.121c62.48,12.073,74.821-6.641,65.632-14.488c-6.89-5.885-49.833-17.938-80.756-40.326
					c-6.137-4.443-12.317-8.753-12.892-16.307l2.36-62.549L2093.448,3331.664z"/>
				<path style="fill:#282828;" d="M2194.578,3452.842c72.426,11.772,31.165-10.866,31.165-10.866s49.673,12.236,60.707,45.276
					c3.712,11.115-105.419,11.647-151.216,1.606c-16.136-3.538-31.053-23.837-33.911-32.393
					c-1.838,31.693-0.245,31.271-4.784,35.332c-8.577,0-22.531-0.245-30.856-0.245c9.794-66.615,4.406-83.758,14.937-104.249
					C2088.826,3371.334,2122.152,3441.07,2194.578,3452.842z"/>
			</g>
			<g>
				<g>
					<path style="fill:#06032D;" d="M1594.132,2439.647l440.9,118.105l4.703,1.26c45.446,12.174,77.315,49.823,84.478,93.416
						c6.908,43.234,12.75,88.553,18.207,132.04c21.128,172.933,36.192,347.162,47.825,520.988l0.376,5.564
						c0.124,1.855,0.266,3.707,0.288,5.578c0.381,17.145-7.379,35.639-19.725,48.22c-38.406,40.117-110.687,29.147-128.585-24.031
						c-45.502-172.013-87.37-345.651-123.104-519.961c-4.07-20.226-9.037-45.117-12.896-65.402
						c-3.866-20.92-8.406-44.629-11.796-65.58c0,0,89.181,94.675,89.181,94.675l-448.978-82.22
						c-73.188-13.403-121.653-83.598-108.25-156.786C1440.475,2468.494,1518.696,2419.109,1594.132,2439.647L1594.132,2439.647z"/>
				</g>
			</g>
		</g>
		<g>
			<g>
				<path style="fill:#FFB7A4;" d="M1862.789,3340.344c-3.622,30.928-11.47,59.301-9.961,65.639
					c1.509,6.339,35.919,57.047,98.399,69.121c62.48,12.073,74.821-6.64,65.632-14.488c-6.89-5.885-49.833-17.938-80.756-40.326
					c-6.137-4.443-12.317-8.753-12.892-16.307l2.36-62.548L1862.789,3340.344z"/>
				<path style="fill:#282828;" d="M1963.92,3461.521c72.426,11.772,31.165-10.866,31.165-10.866s49.673,12.236,60.707,45.275
					c3.712,11.115-105.419,11.647-151.216,1.606c-16.136-3.538-31.053-23.837-33.911-32.393
					c-1.838,31.693-0.245,31.271-4.784,35.332c-8.577,0-22.531-0.245-30.856-0.245c9.794-66.615,4.406-83.758,14.937-104.249
					C1858.168,3380.014,1891.493,3449.75,1963.92,3461.521z"/>
			</g>
			<g>
				<g>
					<path style="fill:#0C0442;" d="M1536.83,2485.864l404.774,82.086l5.245,1.064c56.213,11.4,94.609,61.689,92.922,117.145
						c-0.43,14.57-1.143,29.132-1.841,43.694c-1.438,27.948-3.358,59.469-5.27,87.342
						c-11.981,171.119-30.163,342.346-51.634,512.532c0,0-0.684,5.448-0.684,5.448c-0.229,1.816-0.44,3.633-0.773,5.446
						c-2.88,16.711-14.075,33.134-28.494,42.916c-35.16,24.243-84.71,16.471-109.357-16.862
						c-7.899-10.57-12.395-23.391-12.809-35.919c-12.141-180.249-20.806-361.366-22.191-542.029c-0.22-20.391-0.108-45.173,0-65.622
						c0.152-14.578,0.29-29.156,0.71-43.727l98.168,118.208l-410.472-45.747c-73.96-8.243-127.235-74.882-118.992-148.842
						C1384.428,2524.782,1459.872,2469.895,1536.83,2485.864L1536.83,2485.864z"/>
				</g>
			</g>
		</g>
		<g>
			<g>
				<g id="cELANA_00000100371572152285578280000016693814945174965124_">
					<path style="fill:#0C0442;" d="M1508.15,2754.744L1508.15,2754.744c-118.536,0-208.329-89.411-208.329-207.947l0.106-56.689
						l396.243,12.113l-0.025,65.37C1696.144,2686.126,1626.685,2754.744,1508.15,2754.744z"/>
				</g>
				<path style="fill:#EDEDED;" d="M1294.475,2500.302c0,0,28.788-119.416,25.653-267.587
					c-2.15-101.634-88.456-230.297-51.529-291.586c36.926-61.289,148.207-42.993,167.773-66.619
					c3.067,1.751,11.303,51.548,65.593,46.881c26.288-2.26,25.804-42.914,25.804-42.914c8.603,3.711,46.784,9.744,86.561,19.46
					c43.088,10.524,43.345,24.199,65.011,65.449c30.959,58.938,43.273,136.784,5.173,185.899
					c-11.316,15.027,1.62,312.832,14.339,352.791S1284.029,2539.841,1294.475,2500.302z"/>
			</g>
			<g>
				<g>
					<path style="fill:#191E44;" d="M1457.515,2558.658c0,0-202.651-17.772-218.381-46.283
						c-8.063-14.632,66.247-257.167,66.247-257.167s-53.402-258.735-50.56-296.848c5.094-68.203,182.749-83.849,182.749-83.849
						s-1.061,93.068-0.352,152.328C1437.867,2081.12,1457.515,2558.658,1457.515,2558.658z"/>
				</g>
				<path style="fill:#2E376D;" d="M1381.188,2039.109l47.431-73.598l-47.431-26.193l56.382-64.807c0,0,1.866,90.74,3.587,180.972
					c1.672,87.663,4.426,206.128,4.426,206.128L1381.188,2039.109z"/>
			</g>
			<g>
				<g>
					<path style="fill:#191E44;" d="M1583.049,2558.658c0,0,109.453-15.657,125.183-44.168
						c7.335-13.311-27.397-252.879-27.397-252.879s60.501-188.801,8.154-312.307c-26.69-62.971-161.371-71.931-161.371-71.931
						L1583.049,2558.658z"/>
				</g>
				<polygon style="fill:#2E376D;" points="1583.049,2041.972 1535.618,1968.373 1583.049,1942.181 1527.618,1877.373 
					1558.88,2261.611 				"/>
			</g>
			<path style="fill:#07102B;" d="M1411.879,2375.117l-108.518,17.393c-4.155,0.666-8.063-2.162-8.729-6.318l-4.384-27.353
				c-0.666-4.155,2.163-8.063,6.318-8.729l108.519-17.393c4.155-0.666,8.063,2.163,8.729,6.318l4.384,27.353
				C1418.862,2370.542,1416.034,2374.451,1411.879,2375.117z"/>
			<path style="fill:#07102B;" d="M1672.051,2380.807l-82.198-9.531c-4.18-0.485-7.176-4.266-6.691-8.446l2.117-18.262
				c0.485-4.18,4.266-7.176,8.447-6.691l82.198,9.531c4.18,0.485,7.176,4.266,6.691,8.447l-2.117,18.262
				C1680.013,2378.296,1676.231,2381.292,1672.051,2380.807z"/>
		</g>
		<g>
			<path style="fill:#D8665D;" d="M1988.441,2312.652c0.555,1.15,12.416,24.739,4.791,26.671
				c-7.625,1.932-20.182-29.17-36.51-36.843C1940.393,2294.807,1988.441,2312.652,1988.441,2312.652z"/>
			<path style="fill:#E5786A;" d="M2000.077,2319.311c0.555,1.15,12.416,24.739,4.791,26.671s-20.182-29.17-36.51-36.843
				C1952.03,2301.466,2000.077,2319.311,2000.077,2319.311z"/>
			<path style="fill:#FFA487;" d="M1803.655,2302.716c0,0,70.148,19.322,79.174,31.893c9.026,12.57,57.158,57.07,67.124,41.793
				c9.966-15.276-46.822-33.735-42.665-59.16c4.158-25.425,84.254-10.25,103.377,25.419c19.124,35.669,30.723-13.165-6.897-44.749
				c0,0,11.365,13.092,18.858,36.893c7.493,23.8,16.585-22.58-17.198-48.882c-33.782-26.302-104.551-21.011-110.802-22.705
				c-6.25-1.693-76.945-28.962-76.945-28.962L1803.655,2302.716z"/>
			<path style="fill:#E5786A;" d="M2028.325,2340.266c0,0-5.497-42.196-44.974-59.281
				C1975.208,2277.462,2016.118,2295.26,2028.325,2340.266z"/>
		</g>
		<g>
			<g>
				<path style="fill:#0D1333;" d="M1394.649,1935.633c51.847,91.185,102.156,186.12,150.493,279.184
					c0,0-50.043-32.204-50.043-32.204c42.249,5.986,94.095,13.464,136.046,19.769c66.611,9.876,137.396,20.884,203.897,31.374
					c9.021,1.099,17.067,8.931,20.934,17.152c10.461,22.435,6.987,48.065-6.993,66.582c-5.384,7.074-14.661,12.847-23.496,12.172
					c-82.997-3.494-168.937-7.401-251.849-11.837c-22.77-1.26-68.734-3.726-91.502-5.099c-22.19-1.201-39.802-14.212-50.043-32.204
					c-49.738-76.738-100.307-156.71-147.771-234.934c-5.348-9.011-15.003-24.891-20.318-34.022
					C1216.338,1922.726,1340.813,1850.069,1394.649,1935.633L1394.649,1935.633z"/>
			</g>
		</g>
		<g>
			<g>
				<path style="fill:#CE6B00;" d="M3249.99,2449.446c0,13.159-3.456,25.123-9.018,33.808c-5.575,8.664-13.241,14.049-21.7,14.049
					H1491.135c-16.892,0-30.718-21.54-30.718-47.857c0-5.689,0.641-11.161,1.826-16.22c4.293,18.391,15.652,31.637,28.893,31.637
					h1728.137c8.46,0,16.125-5.385,21.7-14.049c3.164-4.929,5.645-10.922,7.192-17.588
					C3249.348,2438.285,3249.99,2443.757,3249.99,2449.446z"/>
				<path style="fill:#FF8B00;" d="M3248.164,2433.226c-1.547,6.666-4.028,12.659-7.192,17.588
					c-5.575,8.664-13.241,14.049-21.7,14.049H1491.135c-13.241,0-24.6-13.245-28.893-31.637c1.547-6.666,4.028-12.659,7.192-17.588
					c5.575-8.664,13.255-14.049,21.701-14.049h1728.137C3232.526,2401.589,3243.885,2414.813,3248.164,2433.226z"/>
			</g>
			<polygon style="fill:#CE6B00;" points="1644.858,2482.997 1608.402,2474.842 1533.544,3488.917 1551.772,3492.995 			"/>
			<polygon style="fill:#CE6B00;" points="3064.414,2482.997 3100.871,2474.842 3175.728,3488.917 3157.5,3492.995 			"/>
		</g>
		<g>
			<path style="fill:#42AA46;" d="M2296.065,2403.577h-565.094c-6.082,0-11.057-4.976-11.057-11.057v-23.324
				c0-6.081,4.976-11.057,11.057-11.057h565.094c6.081,0,11.057,4.976,11.057,11.057v23.324
				C2307.122,2398.601,2302.146,2403.577,2296.065,2403.577z"/>
			<path style="fill:#51CC50;" d="M2526.155,2009.2l-83.764,372.474c0,12.047-9.857,21.904-21.904,21.904h-372.474
				c-12.047,0-21.904-9.857-21.904-21.904l78.908-350.881l4.855-21.594c0-12.047,9.857-21.904,21.904-21.904h372.474
				C2516.299,1987.297,2526.155,1997.153,2526.155,2009.2z"/>
			<path style="fill:#43C047;" d="M2481.417,2052.698l-78.908,350.881h-354.495c-12.047,0-21.904-9.857-21.904-21.904
				l78.908-350.881h354.495C2471.56,2030.794,2481.417,2040.651,2481.417,2052.698z"/>
			<circle style="fill:#D4E14F;" cx="2299.2" cy="2204.171" r="52.429"/>
			
				<line style="fill:none;stroke:#51CC50;stroke-width:5.5532;stroke-linecap:round;stroke-miterlimit:10;" x1="2147.216" y1="2062.137" x2="2081.995" y2="2343.864"/>
			
				<line style="fill:none;stroke:#51CC50;stroke-width:5.5532;stroke-linecap:round;stroke-miterlimit:10;" x1="2020.135" y1="2372.644" x2="1730.957" y2="2372.644"/>
		</g>
	</g>
	<path style="fill:#565AC5;" d="M5381.205,3482.024v0.924c0,11.957-9.783,21.74-21.74,21.74H640.535
		c-11.957,0-21.74-9.783-21.74-21.74v-0.924c0-11.957,9.783-21.74,21.74-21.74h4718.93
		C5371.422,3460.284,5381.205,3470.067,5381.205,3482.024z"/>
</g>
</svg>
